<svg width="244" height="54" viewBox="0 0 244 54" fill="none" xmlns="http://www.w3.org/2000/svg">
<path d="M243.864 7.98343C243.937 7.3981 243.49 6.87736 242.9 6.86063L1.1459 0.00126291C0.539902 -0.0159313 0.0581207 0.505734 0.123352 1.10846L5.74274 53.0301C5.79976 53.557 6.25792 53.9479 6.78722 53.9213L238.778 42.2417C239.263 42.2173 239.66 41.8481 239.72 41.3662L243.864 7.98343Z" fill="#F4CE9F"/>
<path d="M76.888 35.6848C75.048 35.6848 73.496 35.3407 72.232 34.6527C70.968 33.9487 70.008 32.9487 69.352 31.6527C68.712 30.3567 68.392 28.8127 68.392 27.0207C68.392 25.2287 68.72 23.6847 69.376 22.3887C70.048 21.0927 71 20.0927 72.232 19.3887C73.48 18.6847 74.976 18.3327 76.72 18.3327C77.52 18.3327 78.28 18.4127 79 18.5727C79.72 18.7167 80.384 18.9407 80.992 19.2447C81.616 19.5487 82.16 19.9247 82.624 20.3727L81.736 22.3167C80.984 21.6767 80.2 21.2207 79.384 20.9487C78.584 20.6607 77.696 20.5167 76.72 20.5167C74.848 20.5167 73.424 21.0847 72.448 22.2207C71.472 23.3407 70.984 24.9407 70.984 27.0207C70.984 29.1487 71.488 30.7647 72.496 31.8687C73.504 32.9727 75 33.5247 76.984 33.5247C77.704 33.5247 78.408 33.4607 79.096 33.3327C79.8 33.1887 80.472 32.9887 81.112 32.7327L80.608 33.9807V28.3887H76.48V26.5167H82.696V34.4847C82.232 34.7247 81.672 34.9327 81.016 35.1087C80.376 35.2847 79.696 35.4207 78.976 35.5168C78.272 35.6288 77.576 35.6848 76.888 35.6848ZM86.0427 21.0447V18.5247H88.8747V21.0447H86.0427ZM86.2587 35.4688V23.7567H88.6827V35.4688H86.2587ZM92.7906 35.4688V25.6287H90.5106V23.7567H93.4866L92.7906 24.4047V23.5407C92.7906 21.9407 93.1986 20.7327 94.0146 19.9167C94.8466 19.0847 96.1186 18.6207 97.8306 18.5247L98.8866 18.4527L99.0546 20.2767L97.9506 20.3487C97.2946 20.3807 96.7666 20.5087 96.3666 20.7327C95.9666 20.9567 95.6706 21.2767 95.4786 21.6927C95.3026 22.0927 95.2146 22.5967 95.2146 23.2047V24.1407L94.8786 23.7567H98.5026V25.6287H95.2146V35.4688H92.7906ZM104.798 35.6848C103.342 35.6848 102.246 35.3087 101.51 34.5567C100.79 33.8047 100.43 32.7167 100.43 31.2927V25.6287H98.1496V23.7567H100.43V20.2287H102.854V23.7567H106.478V25.6287H102.854V31.1007C102.854 31.9487 103.03 32.5887 103.382 33.0207C103.75 33.4527 104.342 33.6687 105.158 33.6687C105.398 33.6687 105.638 33.6367 105.878 33.5727C106.134 33.5087 106.382 33.4447 106.622 33.3807L107.006 35.2047C106.766 35.3487 106.43 35.4607 105.998 35.5408C105.582 35.6368 105.182 35.6848 104.798 35.6848ZM122.724 35.6848C121.012 35.6848 119.548 35.3328 118.332 34.6287C117.116 33.9247 116.18 32.9247 115.524 31.6287C114.884 30.3167 114.564 28.7727 114.564 26.9967C114.564 25.2207 114.884 23.6847 115.524 22.3887C116.18 21.0927 117.116 20.0927 118.332 19.3887C119.548 18.6847 121.012 18.3327 122.724 18.3327C123.876 18.3327 124.948 18.5167 125.94 18.8847C126.948 19.2367 127.788 19.7487 128.46 20.4207L127.596 22.4127C126.86 21.7567 126.1 21.2847 125.316 20.9967C124.548 20.6927 123.708 20.5407 122.796 20.5407C120.972 20.5407 119.58 21.1007 118.62 22.2207C117.66 23.3407 117.18 24.9327 117.18 26.9967C117.18 29.0607 117.66 30.6607 118.62 31.7967C119.58 32.9167 120.972 33.4767 122.796 33.4767C123.708 33.4767 124.548 33.3327 125.316 33.0447C126.1 32.7407 126.86 32.2607 127.596 31.6047L128.46 33.5967C127.788 34.2687 126.948 34.7887 125.94 35.1567C124.948 35.5088 123.876 35.6848 122.724 35.6848ZM134.44 35.6848C133.624 35.6848 132.888 35.5248 132.232 35.2047C131.592 34.8847 131.088 34.4527 130.72 33.9087C130.352 33.3647 130.168 32.7487 130.168 32.0607C130.168 31.1967 130.384 30.5167 130.816 30.0207C131.264 29.5087 131.992 29.1487 133 28.9407C134.024 28.7167 135.4 28.6047 137.128 28.6047H138.256V30.0927H137.152C136.288 30.0927 135.56 30.1247 134.968 30.1887C134.376 30.2527 133.904 30.3567 133.552 30.5007C133.2 30.6287 132.944 30.8127 132.784 31.0527C132.64 31.2927 132.568 31.5807 132.568 31.9167C132.568 32.5247 132.776 33.0207 133.192 33.4047C133.608 33.7727 134.184 33.9567 134.92 33.9567C135.512 33.9567 136.032 33.8207 136.48 33.5487C136.928 33.2607 137.28 32.8767 137.536 32.3967C137.808 31.9167 137.944 31.3647 137.944 30.7407V27.9807C137.944 27.0687 137.752 26.4127 137.368 26.0127C136.984 25.6127 136.352 25.4127 135.472 25.4127C134.8 25.4127 134.128 25.5167 133.456 25.7247C132.784 25.9167 132.096 26.2287 131.392 26.6607L130.648 24.9567C131.064 24.6687 131.544 24.4207 132.088 24.2127C132.632 24.0047 133.2 23.8447 133.792 23.7327C134.4 23.6047 134.984 23.5407 135.544 23.5407C136.616 23.5407 137.496 23.7087 138.184 24.0447C138.888 24.3807 139.408 24.8927 139.744 25.5807C140.08 26.2687 140.248 27.1567 140.248 28.2447V35.4688H137.968V32.8527H138.184C138.056 33.4447 137.816 33.9567 137.464 34.3887C137.128 34.8047 136.704 35.1247 136.192 35.3487C135.68 35.5728 135.096 35.6848 134.44 35.6848ZM143.587 35.4688V23.7567H145.939V26.5647H145.699C145.955 25.6047 146.411 24.8767 147.067 24.3807C147.739 23.8847 148.627 23.5967 149.731 23.5167L150.523 23.4688L150.691 25.5327L149.227 25.6767C148.187 25.7727 147.395 26.1007 146.851 26.6607C146.307 27.2207 146.035 27.9887 146.035 28.9647V35.4688H143.587ZM156.84 35.6848C155.816 35.6848 154.912 35.4447 154.128 34.9647C153.36 34.4687 152.76 33.7647 152.328 32.8527C151.896 31.9247 151.68 30.8447 151.68 29.6127C151.68 28.3487 151.896 27.2687 152.328 26.3727C152.76 25.4767 153.36 24.7807 154.128 24.2847C154.912 23.7887 155.816 23.5407 156.84 23.5407C157.864 23.5407 158.744 23.7967 159.48 24.3087C160.232 24.8047 160.736 25.4767 160.992 26.3247H160.728V18.5487H163.152V35.4688H160.776V32.8287H161.016C160.76 33.6927 160.256 34.3887 159.504 34.9167C158.768 35.4287 157.88 35.6848 156.84 35.6848ZM157.464 33.8127C158.456 33.8127 159.256 33.4527 159.864 32.7327C160.472 32.0127 160.776 30.9727 160.776 29.6127C160.776 28.2367 160.472 27.1967 159.864 26.4927C159.256 25.7887 158.456 25.4367 157.464 25.4367C156.456 25.4367 155.648 25.7887 155.04 26.4927C154.432 27.1967 154.128 28.2367 154.128 29.6127C154.128 30.9727 154.432 32.0127 155.04 32.7327C155.648 33.4527 156.456 33.8127 157.464 33.8127ZM170.66 35.6848C170.036 35.6848 169.428 35.6288 168.836 35.5168C168.244 35.4047 167.7 35.2447 167.204 35.0367C166.708 34.8287 166.268 34.5727 165.884 34.2687L166.58 32.6367C166.98 32.9087 167.404 33.1487 167.852 33.3567C168.3 33.5487 168.764 33.6927 169.244 33.7887C169.74 33.8847 170.22 33.9327 170.684 33.9327C171.532 33.9327 172.172 33.7807 172.604 33.4767C173.036 33.1727 173.252 32.7647 173.252 32.2527C173.252 31.8367 173.108 31.5167 172.82 31.2927C172.532 31.0527 172.1 30.8687 171.524 30.7407L169.244 30.2847C168.252 30.0767 167.5 29.7087 166.988 29.1807C166.476 28.6527 166.22 27.9807 166.22 27.1647C166.22 26.4287 166.42 25.7887 166.82 25.2447C167.22 24.7007 167.78 24.2847 168.5 23.9967C169.22 23.6927 170.052 23.5407 170.996 23.5407C171.54 23.5407 172.068 23.5967 172.58 23.7087C173.092 23.8207 173.572 23.9807 174.02 24.1887C174.484 24.3967 174.876 24.6607 175.196 24.9807L174.5 26.6127C174.196 26.3407 173.844 26.1087 173.444 25.9167C173.06 25.7247 172.66 25.5807 172.244 25.4847C171.828 25.3727 171.412 25.3167 170.996 25.3167C170.148 25.3167 169.508 25.4767 169.076 25.7967C168.66 26.1007 168.452 26.5167 168.452 27.0447C168.452 27.4447 168.58 27.7727 168.836 28.0287C169.092 28.2847 169.492 28.4688 170.036 28.5807L172.316 29.0367C173.356 29.2447 174.14 29.5967 174.668 30.0927C175.212 30.5887 175.484 31.2607 175.484 32.1087C175.484 32.8447 175.284 33.4847 174.884 34.0287C174.484 34.5727 173.916 34.9887 173.18 35.2767C172.46 35.5488 171.62 35.6848 170.66 35.6848Z" fill="#201814"/>
</svg>
