<svg width="252" height="54" viewBox="0 0 252 54" fill="none" xmlns="http://www.w3.org/2000/svg">
<path d="M251.732 8.3131C251.809 7.72517 251.36 7.19992 250.768 7.18394L1.02678 0.449975C0.419067 0.433589 -0.0625458 0.958742 0.00624084 1.56277L5.80594 52.4885C5.86555 53.0119 6.32106 53.3994 6.84731 53.3742L246.514 41.9076C246.997 41.8845 247.395 41.5183 247.457 41.0383L251.732 8.3131Z" fill="#FEFAF5"/>
<path d="M59.188 34.716C57.988 34.716 56.9 34.516 55.924 34.116C54.948 33.716 54.108 33.132 53.404 32.364C52.716 31.596 52.188 30.684 51.82 29.628C51.452 28.556 51.268 27.356 51.268 26.028C51.268 24.7 51.452 23.508 51.82 22.452C52.188 21.38 52.716 20.468 53.404 19.716C54.092 18.948 54.924 18.364 55.9 17.964C56.876 17.564 57.972 17.364 59.188 17.364C60.388 17.364 61.476 17.564 62.452 17.964C63.428 18.364 64.26 18.94 64.948 19.692C65.652 20.444 66.188 21.356 66.556 22.428C66.924 23.484 67.108 24.676 67.108 26.004C67.108 27.332 66.924 28.532 66.556 29.604C66.188 30.676 65.652 31.596 64.948 32.364C64.26 33.132 63.428 33.716 62.452 34.116C61.476 34.516 60.388 34.716 59.188 34.716ZM59.188 32.556C60.308 32.556 61.26 32.3 62.044 31.788C62.844 31.276 63.452 30.532 63.868 29.556C64.3 28.58 64.516 27.404 64.516 26.028C64.516 24.652 64.308 23.476 63.892 22.5C63.476 21.524 62.868 20.788 62.068 20.292C61.284 19.78 60.324 19.524 59.188 19.524C58.068 19.524 57.108 19.78 56.308 20.292C55.524 20.788 54.916 21.524 54.484 22.5C54.068 23.476 53.86 24.652 53.86 26.028C53.86 27.388 54.068 28.564 54.484 29.556C54.916 30.532 55.524 31.276 56.308 31.788C57.108 32.3 58.068 32.556 59.188 32.556ZM74.3654 34.716C73.4214 34.716 72.6294 34.54 71.9894 34.188C71.3654 33.836 70.8934 33.316 70.5734 32.628C70.2694 31.924 70.1174 31.044 70.1174 29.988V22.788H72.5414V30.012C72.5414 30.636 72.6214 31.156 72.7814 31.572C72.9574 31.988 73.2214 32.292 73.5734 32.484C73.9414 32.676 74.3974 32.772 74.9414 32.772C75.5494 32.772 76.0854 32.636 76.5494 32.364C77.0134 32.092 77.3734 31.7 77.6294 31.188C77.8854 30.676 78.0134 30.084 78.0134 29.412V22.788H80.4374V34.5H78.0854V31.932H78.3974C78.0774 32.828 77.5654 33.516 76.8614 33.996C76.1574 34.476 75.3254 34.716 74.3654 34.716ZM83.8534 34.5V22.788H86.2054V25.596H85.9654C86.2214 24.636 86.6774 23.908 87.3334 23.412C88.0054 22.916 88.8934 22.628 89.9974 22.548L90.7894 22.5L90.9574 24.564L89.4934 24.708C88.4534 24.804 87.6614 25.132 87.1174 25.692C86.5734 26.252 86.3014 27.02 86.3014 27.996V34.5H83.8534ZM99.3752 34.5V17.58H101.871V32.364H110.247V34.5H99.3752ZM117.324 34.716C116.14 34.716 115.116 34.468 114.252 33.972C113.404 33.476 112.74 32.772 112.26 31.86C111.78 30.948 111.54 29.876 111.54 28.644C111.54 27.396 111.78 26.324 112.26 25.428C112.74 24.516 113.404 23.812 114.252 23.316C115.116 22.82 116.14 22.572 117.324 22.572C118.492 22.572 119.5 22.82 120.348 23.316C121.212 23.812 121.884 24.516 122.364 25.428C122.844 26.34 123.084 27.412 123.084 28.644C123.084 29.876 122.844 30.948 122.364 31.86C121.884 32.772 121.212 33.476 120.348 33.972C119.5 34.468 118.492 34.716 117.324 34.716ZM117.3 32.844C118.308 32.844 119.116 32.484 119.724 31.764C120.332 31.044 120.636 30.004 120.636 28.644C120.636 27.268 120.332 26.228 119.724 25.524C119.116 24.82 118.308 24.468 117.3 24.468C116.308 24.468 115.508 24.82 114.9 25.524C114.292 26.228 113.988 27.268 113.988 28.644C113.988 30.004 114.292 31.044 114.9 31.764C115.508 32.484 116.308 32.844 117.3 32.844ZM130.967 34.716C129.767 34.716 128.727 34.468 127.847 33.972C126.983 33.46 126.311 32.748 125.831 31.836C125.351 30.908 125.111 29.82 125.111 28.572C125.111 27.34 125.351 26.276 125.831 25.38C126.311 24.484 126.983 23.796 127.847 23.316C128.727 22.82 129.767 22.572 130.967 22.572C131.703 22.572 132.431 22.7 133.151 22.956C133.871 23.196 134.463 23.548 134.927 24.012L134.159 25.716C133.727 25.3 133.239 24.996 132.695 24.804C132.151 24.596 131.639 24.492 131.159 24.492C130.023 24.492 129.143 24.852 128.519 25.572C127.911 26.276 127.607 27.284 127.607 28.596C127.607 29.908 127.911 30.94 128.519 31.692C129.143 32.428 130.023 32.796 131.159 32.796C131.639 32.796 132.151 32.7 132.695 32.508C133.239 32.3 133.727 31.988 134.159 31.572L134.927 33.3C134.463 33.732 133.863 34.076 133.127 34.332C132.407 34.588 131.687 34.716 130.967 34.716ZM140.66 34.716C139.844 34.716 139.108 34.556 138.452 34.236C137.812 33.916 137.308 33.484 136.94 32.94C136.572 32.396 136.388 31.78 136.388 31.092C136.388 30.228 136.604 29.548 137.036 29.052C137.484 28.54 138.212 28.18 139.22 27.972C140.244 27.748 141.62 27.636 143.348 27.636H144.476V29.124H143.372C142.508 29.124 141.78 29.156 141.188 29.22C140.596 29.284 140.124 29.388 139.772 29.532C139.42 29.66 139.164 29.844 139.004 30.084C138.86 30.324 138.788 30.612 138.788 30.948C138.788 31.556 138.996 32.052 139.412 32.436C139.828 32.804 140.404 32.988 141.14 32.988C141.732 32.988 142.252 32.852 142.7 32.58C143.148 32.292 143.5 31.908 143.756 31.428C144.028 30.948 144.164 30.396 144.164 29.772V27.012C144.164 26.1 143.972 25.444 143.588 25.044C143.204 24.644 142.572 24.444 141.692 24.444C141.02 24.444 140.348 24.548 139.676 24.756C139.004 24.948 138.316 25.26 137.612 25.692L136.868 23.988C137.284 23.7 137.764 23.452 138.308 23.244C138.852 23.036 139.42 22.876 140.012 22.764C140.62 22.636 141.204 22.572 141.764 22.572C142.836 22.572 143.716 22.74 144.404 23.076C145.108 23.412 145.628 23.924 145.964 24.612C146.3 25.3 146.468 26.188 146.468 27.276V34.5H144.188V31.884H144.404C144.276 32.476 144.036 32.988 143.684 33.42C143.348 33.836 142.924 34.156 142.412 34.38C141.9 34.604 141.316 34.716 140.66 34.716ZM154.799 34.716C153.343 34.716 152.247 34.34 151.511 33.588C150.791 32.836 150.431 31.748 150.431 30.324V24.66H148.151V22.788H150.431V19.26H152.855V22.788H156.479V24.66H152.855V30.132C152.855 30.98 153.031 31.62 153.383 32.052C153.751 32.484 154.343 32.7 155.159 32.7C155.399 32.7 155.639 32.668 155.879 32.604C156.135 32.54 156.383 32.476 156.623 32.412L157.007 34.236C156.767 34.38 156.431 34.492 155.999 34.572C155.583 34.668 155.183 34.716 154.799 34.716ZM158.356 20.076V17.556H161.188V20.076H158.356ZM158.572 34.5V22.788H160.996V34.5H158.572ZM169.496 34.716C168.312 34.716 167.288 34.468 166.424 33.972C165.576 33.476 164.912 32.772 164.432 31.86C163.952 30.948 163.712 29.876 163.712 28.644C163.712 27.396 163.952 26.324 164.432 25.428C164.912 24.516 165.576 23.812 166.424 23.316C167.288 22.82 168.312 22.572 169.496 22.572C170.664 22.572 171.672 22.82 172.52 23.316C173.384 23.812 174.056 24.516 174.536 25.428C175.016 26.34 175.256 27.412 175.256 28.644C175.256 29.876 175.016 30.948 174.536 31.86C174.056 32.772 173.384 33.476 172.52 33.972C171.672 34.468 170.664 34.716 169.496 34.716ZM169.472 32.844C170.48 32.844 171.288 32.484 171.896 31.764C172.504 31.044 172.808 30.004 172.808 28.644C172.808 27.268 172.504 26.228 171.896 25.524C171.288 24.82 170.48 24.468 169.472 24.468C168.48 24.468 167.68 24.82 167.072 25.524C166.464 26.228 166.16 27.268 166.16 28.644C166.16 30.004 166.464 31.044 167.072 31.764C167.68 32.484 168.48 32.844 169.472 32.844ZM177.978 34.5V22.788H180.33V25.284H180.066C180.418 24.388 180.97 23.716 181.722 23.268C182.474 22.804 183.338 22.572 184.314 22.572C185.242 22.572 186.01 22.748 186.618 23.1C187.242 23.436 187.706 23.956 188.01 24.66C188.314 25.348 188.466 26.22 188.466 27.276V34.5H186.042V27.42C186.042 26.748 185.954 26.204 185.778 25.788C185.602 25.356 185.338 25.036 184.986 24.828C184.634 24.62 184.178 24.516 183.618 24.516C182.978 24.516 182.41 24.652 181.914 24.924C181.434 25.196 181.058 25.588 180.786 26.1C180.53 26.612 180.402 27.204 180.402 27.876V34.5H177.978ZM195.911 34.716C195.287 34.716 194.679 34.66 194.087 34.548C193.495 34.436 192.951 34.276 192.455 34.068C191.959 33.86 191.519 33.604 191.135 33.3L191.831 31.668C192.231 31.94 192.655 32.18 193.103 32.388C193.551 32.58 194.015 32.724 194.495 32.82C194.991 32.916 195.471 32.964 195.935 32.964C196.783 32.964 197.423 32.812 197.855 32.508C198.287 32.204 198.503 31.796 198.503 31.284C198.503 30.868 198.359 30.548 198.071 30.324C197.783 30.084 197.351 29.9 196.775 29.772L194.495 29.316C193.503 29.108 192.751 28.74 192.239 28.212C191.727 27.684 191.471 27.012 191.471 26.196C191.471 25.46 191.671 24.82 192.071 24.276C192.471 23.732 193.031 23.316 193.751 23.028C194.471 22.724 195.303 22.572 196.247 22.572C196.791 22.572 197.319 22.628 197.831 22.74C198.343 22.852 198.823 23.012 199.271 23.22C199.735 23.428 200.127 23.692 200.447 24.012L199.751 25.644C199.447 25.372 199.095 25.14 198.695 24.948C198.311 24.756 197.911 24.612 197.495 24.516C197.079 24.404 196.663 24.348 196.247 24.348C195.399 24.348 194.759 24.508 194.327 24.828C193.911 25.132 193.703 25.548 193.703 26.076C193.703 26.476 193.831 26.804 194.087 27.06C194.343 27.316 194.743 27.5 195.287 27.612L197.567 28.068C198.607 28.276 199.391 28.628 199.919 29.124C200.463 29.62 200.735 30.292 200.735 31.14C200.735 31.876 200.535 32.516 200.135 33.06C199.735 33.604 199.167 34.02 198.431 34.308C197.711 34.58 196.871 34.716 195.911 34.716Z" fill="#201814"/>
</svg>
