<svg width="324" height="57" viewBox="0 0 324 57" fill="none" xmlns="http://www.w3.org/2000/svg">
<path d="M323.669 8.7298C323.764 8.13134 323.309 7.58648 322.703 7.57305L1.02252 0.444957C0.40686 0.431315 -0.074707 0.97201 0.00979614 1.58198L7.48474 55.5214C7.55533 56.0308 8.0007 56.4035 8.51456 56.3833L317.209 44.246C317.685 44.2273 318.082 43.8747 318.157 43.4038L323.669 8.7298Z" fill="#3A2010"/>
<path d="M52.4366 36V19.08H63.1166V20.736H54.3566V26.592H62.6126V28.248H54.3566V34.344H63.1166V36H52.4366ZM69.3859 36L64.3699 24.336H66.4819L70.6579 34.56H70.0099L74.2579 24.336H76.2499L71.2099 36H69.3859ZM83.3974 36.216C82.1654 36.216 81.1014 35.976 80.2054 35.496C79.3254 35 78.6374 34.304 78.1414 33.408C77.6614 32.512 77.4214 31.44 77.4214 30.192C77.4214 28.976 77.6614 27.92 78.1414 27.024C78.6214 26.112 79.2774 25.4 80.1094 24.888C80.9574 24.376 81.9334 24.12 83.0374 24.12C84.0934 24.12 84.9974 24.352 85.7494 24.816C86.5014 25.28 87.0774 25.936 87.4774 26.784C87.8934 27.632 88.1014 28.648 88.1014 29.832V30.576H78.9094V29.304H86.8054L86.4214 29.616C86.4214 28.336 86.1334 27.344 85.5574 26.64C84.9974 25.92 84.1734 25.56 83.0854 25.56C82.2694 25.56 81.5734 25.752 80.9974 26.136C80.4374 26.504 80.0134 27.024 79.7254 27.696C79.4374 28.352 79.2934 29.12 79.2934 30V30.144C79.2934 31.12 79.4454 31.944 79.7494 32.616C80.0694 33.288 80.5414 33.8 81.1654 34.152C81.7894 34.488 82.5334 34.656 83.3974 34.656C84.0854 34.656 84.7494 34.552 85.3894 34.344C86.0454 34.12 86.6614 33.76 87.2374 33.264L87.9094 34.632C87.3814 35.112 86.7094 35.496 85.8934 35.784C85.0774 36.072 84.2454 36.216 83.3974 36.216ZM90.9148 36V24.336H92.8108V26.928H92.5468C92.8828 26 93.4268 25.304 94.1788 24.84C94.9468 24.36 95.8268 24.12 96.8188 24.12C97.7468 24.12 98.5148 24.288 99.1228 24.624C99.7468 24.944 100.211 25.448 100.515 26.136C100.819 26.824 100.971 27.688 100.971 28.728V36H99.0268V28.848C99.0268 28.128 98.9308 27.536 98.7388 27.072C98.5628 26.608 98.2748 26.264 97.8748 26.04C97.4908 25.816 96.9868 25.704 96.3628 25.704C95.6588 25.704 95.0428 25.856 94.5148 26.16C93.9868 26.464 93.5788 26.888 93.2908 27.432C93.0028 27.976 92.8588 28.616 92.8588 29.352V36H90.9148ZM109.235 36.216C107.859 36.216 106.827 35.848 106.139 35.112C105.451 34.376 105.107 33.328 105.107 31.968V25.848H102.827V24.336H105.107V20.76H107.051V24.336H110.747V25.848H107.051V31.776C107.051 32.688 107.243 33.384 107.627 33.864C108.011 34.328 108.635 34.56 109.499 34.56C109.755 34.56 110.011 34.528 110.267 34.464C110.523 34.4 110.755 34.336 110.963 34.272L111.299 35.76C111.091 35.872 110.787 35.976 110.387 36.072C109.987 36.168 109.603 36.216 109.235 36.216ZM116.882 36.216C116.274 36.216 115.682 36.152 115.106 36.024C114.546 35.912 114.018 35.752 113.522 35.544C113.042 35.32 112.626 35.056 112.274 34.752L112.898 33.384C113.282 33.688 113.698 33.944 114.146 34.152C114.594 34.344 115.05 34.488 115.514 34.584C115.978 34.68 116.45 34.728 116.93 34.728C117.842 34.728 118.53 34.56 118.994 34.224C119.458 33.888 119.69 33.432 119.69 32.856C119.69 32.408 119.538 32.056 119.234 31.8C118.93 31.528 118.45 31.32 117.794 31.176L115.61 30.696C114.602 30.488 113.85 30.128 113.354 29.616C112.874 29.104 112.634 28.44 112.634 27.624C112.634 26.904 112.818 26.288 113.186 25.776C113.57 25.248 114.106 24.84 114.794 24.552C115.482 24.264 116.282 24.12 117.194 24.12C117.738 24.12 118.258 24.176 118.754 24.288C119.25 24.4 119.714 24.568 120.146 24.792C120.594 25 120.978 25.264 121.298 25.584L120.65 26.952C120.346 26.664 120.002 26.424 119.618 26.232C119.234 26.024 118.834 25.872 118.418 25.776C118.018 25.664 117.61 25.608 117.194 25.608C116.298 25.608 115.618 25.784 115.154 26.136C114.69 26.488 114.458 26.952 114.458 27.528C114.458 27.976 114.602 28.344 114.89 28.632C115.178 28.92 115.626 29.128 116.234 29.256L118.418 29.712C119.458 29.936 120.234 30.296 120.746 30.792C121.274 31.272 121.538 31.928 121.538 32.76C121.538 33.464 121.346 34.08 120.962 34.608C120.578 35.12 120.034 35.52 119.33 35.808C118.642 36.08 117.826 36.216 116.882 36.216ZM130.977 36V19.08H132.633L139.497 31.968H138.777L145.593 19.08H147.249V36H145.425V21.72H146.001L139.785 33.384H138.489L132.201 21.696H132.777V36H130.977ZM154.868 36.216C154.068 36.216 153.348 36.064 152.708 35.76C152.084 35.44 151.588 35.008 151.22 34.464C150.852 33.92 150.668 33.312 150.668 32.64C150.668 31.776 150.884 31.096 151.316 30.6C151.764 30.104 152.492 29.752 153.5 29.544C154.524 29.336 155.916 29.232 157.676 29.232H158.756V30.504H157.7C156.724 30.504 155.908 30.536 155.252 30.6C154.596 30.664 154.076 30.776 153.692 30.936C153.308 31.096 153.036 31.304 152.876 31.56C152.716 31.816 152.636 32.136 152.636 32.52C152.636 33.176 152.86 33.712 153.308 34.128C153.772 34.544 154.396 34.752 155.18 34.752C155.82 34.752 156.38 34.6 156.86 34.296C157.356 33.992 157.74 33.576 158.012 33.048C158.3 32.52 158.444 31.912 158.444 31.224V28.488C158.444 27.496 158.244 26.784 157.844 26.352C157.444 25.904 156.788 25.68 155.876 25.68C155.172 25.68 154.492 25.784 153.836 25.992C153.18 26.184 152.508 26.504 151.82 26.952L151.148 25.536C151.564 25.248 152.036 25 152.564 24.792C153.092 24.568 153.644 24.4 154.22 24.288C154.796 24.176 155.348 24.12 155.876 24.12C156.884 24.12 157.716 24.288 158.372 24.624C159.028 24.944 159.516 25.44 159.836 26.112C160.156 26.768 160.316 27.616 160.316 28.656V36H158.492V33.288H158.708C158.58 33.896 158.332 34.416 157.964 34.848C157.612 35.28 157.172 35.616 156.644 35.856C156.116 36.096 155.524 36.216 154.868 36.216ZM168.363 36.216C167.323 36.216 166.411 35.968 165.627 35.472C164.859 34.976 164.259 34.28 163.827 33.384C163.411 32.472 163.203 31.4 163.203 30.168C163.203 28.92 163.411 27.848 163.827 26.952C164.259 26.04 164.859 25.344 165.627 24.864C166.411 24.368 167.323 24.12 168.363 24.12C169.419 24.12 170.323 24.384 171.075 24.912C171.827 25.44 172.331 26.152 172.587 27.048H172.323V19.08H174.267V36H172.371V33.216H172.611C172.355 34.128 171.843 34.856 171.075 35.4C170.323 35.944 169.419 36.216 168.363 36.216ZM168.771 34.656C169.875 34.656 170.747 34.272 171.387 33.504C172.043 32.72 172.371 31.608 172.371 30.168C172.371 28.712 172.043 27.6 171.387 26.832C170.747 26.064 169.875 25.68 168.771 25.68C167.683 25.68 166.811 26.064 166.155 26.832C165.499 27.6 165.171 28.712 165.171 30.168C165.171 31.608 165.499 32.72 166.155 33.504C166.811 34.272 167.683 34.656 168.771 34.656ZM183.171 36.216C181.939 36.216 180.875 35.976 179.979 35.496C179.099 35 178.411 34.304 177.915 33.408C177.435 32.512 177.195 31.44 177.195 30.192C177.195 28.976 177.435 27.92 177.915 27.024C178.395 26.112 179.051 25.4 179.883 24.888C180.731 24.376 181.707 24.12 182.811 24.12C183.867 24.12 184.771 24.352 185.523 24.816C186.275 25.28 186.851 25.936 187.251 26.784C187.667 27.632 187.875 28.648 187.875 29.832V30.576H178.683V29.304H186.579L186.195 29.616C186.195 28.336 185.907 27.344 185.331 26.64C184.771 25.92 183.947 25.56 182.859 25.56C182.043 25.56 181.347 25.752 180.771 26.136C180.211 26.504 179.787 27.024 179.499 27.696C179.211 28.352 179.067 29.12 179.067 30V30.144C179.067 31.12 179.219 31.944 179.523 32.616C179.843 33.288 180.315 33.8 180.939 34.152C181.563 34.488 182.307 34.656 183.171 34.656C183.859 34.656 184.523 34.552 185.163 34.344C185.819 34.12 186.435 33.76 187.011 33.264L187.683 34.632C187.155 35.112 186.483 35.496 185.667 35.784C184.851 36.072 184.019 36.216 183.171 36.216ZM202.588 36.216C201.708 36.216 200.876 36.136 200.092 35.976C199.324 35.816 198.612 35.592 197.956 35.304C197.316 35 196.732 34.632 196.204 34.2L196.9 32.616C197.444 33.016 197.996 33.36 198.556 33.648C199.132 33.92 199.748 34.128 200.404 34.272C201.076 34.4 201.804 34.464 202.588 34.464C204.028 34.464 205.092 34.2 205.78 33.672C206.484 33.128 206.836 32.416 206.836 31.536C206.836 31.072 206.724 30.672 206.5 30.336C206.292 30 205.94 29.712 205.444 29.472C204.964 29.232 204.332 29.032 203.548 28.872L201.052 28.368C199.548 28.048 198.42 27.528 197.668 26.808C196.932 26.072 196.564 25.096 196.564 23.88C196.564 22.872 196.82 21.992 197.332 21.24C197.86 20.488 198.588 19.904 199.516 19.488C200.46 19.072 201.532 18.864 202.732 18.864C203.5 18.864 204.228 18.944 204.916 19.104C205.604 19.264 206.236 19.504 206.812 19.824C207.404 20.128 207.924 20.504 208.372 20.952L207.676 22.488C206.956 21.832 206.196 21.36 205.396 21.072C204.596 20.768 203.7 20.616 202.708 20.616C201.86 20.616 201.124 20.744 200.5 21C199.892 21.256 199.412 21.632 199.06 22.128C198.724 22.608 198.556 23.168 198.556 23.808C198.556 24.576 198.788 25.184 199.252 25.632C199.732 26.08 200.508 26.408 201.58 26.616L204.076 27.144C205.692 27.48 206.884 27.992 207.652 28.68C208.436 29.352 208.828 30.272 208.828 31.44C208.828 32.368 208.572 33.2 208.06 33.936C207.564 34.656 206.844 35.216 205.9 35.616C204.972 36.016 203.868 36.216 202.588 36.216ZM211.618 40.32V24.336H213.514V27.096H213.274C213.53 26.184 214.034 25.464 214.786 24.936C215.554 24.392 216.466 24.12 217.522 24.12C218.562 24.12 219.466 24.368 220.234 24.864C221.018 25.344 221.618 26.04 222.034 26.952C222.466 27.848 222.682 28.92 222.682 30.168C222.682 31.4 222.466 32.472 222.034 33.384C221.618 34.28 221.026 34.976 220.258 35.472C219.49 35.968 218.578 36.216 217.522 36.216C216.466 36.216 215.562 35.952 214.81 35.424C214.058 34.88 213.546 34.16 213.274 33.264H213.562V40.32H211.618ZM217.114 34.656C218.218 34.656 219.09 34.272 219.73 33.504C220.386 32.72 220.714 31.608 220.714 30.168C220.714 28.712 220.386 27.6 219.73 26.832C219.09 26.064 218.218 25.68 217.114 25.68C216.026 25.68 215.154 26.064 214.498 26.832C213.842 27.6 213.514 28.712 213.514 30.168C213.514 31.608 213.842 32.72 214.498 33.504C215.154 34.272 216.026 34.656 217.114 34.656ZM230.866 36.216C229.634 36.216 228.57 35.976 227.674 35.496C226.794 35 226.106 34.304 225.61 33.408C225.13 32.512 224.89 31.44 224.89 30.192C224.89 28.976 225.13 27.92 225.61 27.024C226.09 26.112 226.746 25.4 227.578 24.888C228.426 24.376 229.402 24.12 230.506 24.12C231.562 24.12 232.466 24.352 233.218 24.816C233.97 25.28 234.546 25.936 234.946 26.784C235.362 27.632 235.57 28.648 235.57 29.832V30.576H226.378V29.304H234.274L233.89 29.616C233.89 28.336 233.602 27.344 233.026 26.64C232.466 25.92 231.642 25.56 230.554 25.56C229.738 25.56 229.042 25.752 228.466 26.136C227.906 26.504 227.482 27.024 227.194 27.696C226.906 28.352 226.762 29.12 226.762 30V30.144C226.762 31.12 226.914 31.944 227.218 32.616C227.538 33.288 228.01 33.8 228.634 34.152C229.258 34.488 230.002 34.656 230.866 34.656C231.554 34.656 232.218 34.552 232.858 34.344C233.514 34.12 234.13 33.76 234.706 33.264L235.378 34.632C234.85 35.112 234.178 35.496 233.362 35.784C232.546 36.072 231.714 36.216 230.866 36.216ZM243.328 36.216C242.16 36.216 241.152 35.96 240.304 35.448C239.456 34.936 238.8 34.224 238.336 33.312C237.888 32.384 237.664 31.312 237.664 30.096C237.664 28.864 237.888 27.8 238.336 26.904C238.8 26.008 239.456 25.32 240.304 24.84C241.152 24.36 242.16 24.12 243.328 24.12C244.048 24.12 244.76 24.248 245.464 24.504C246.168 24.76 246.752 25.12 247.216 25.584L246.544 27C246.08 26.552 245.568 26.224 245.008 26.016C244.464 25.808 243.944 25.704 243.448 25.704C242.232 25.704 241.296 26.088 240.64 26.856C239.984 27.608 239.656 28.696 239.656 30.12C239.656 31.512 239.984 32.616 240.64 33.432C241.296 34.232 242.232 34.632 243.448 34.632C243.944 34.632 244.464 34.528 245.008 34.32C245.568 34.112 246.08 33.776 246.544 33.312L247.216 34.728C246.752 35.192 246.16 35.56 245.44 35.832C244.736 36.088 244.032 36.216 243.328 36.216ZM249.253 21.432V19.248H251.653V21.432H249.253ZM249.493 36V24.336H251.437V36H249.493ZM258.743 36.216C257.943 36.216 257.223 36.064 256.583 35.76C255.959 35.44 255.463 35.008 255.095 34.464C254.727 33.92 254.543 33.312 254.543 32.64C254.543 31.776 254.759 31.096 255.191 30.6C255.639 30.104 256.367 29.752 257.375 29.544C258.399 29.336 259.791 29.232 261.551 29.232H262.631V30.504H261.575C260.599 30.504 259.783 30.536 259.127 30.6C258.471 30.664 257.951 30.776 257.567 30.936C257.183 31.096 256.911 31.304 256.751 31.56C256.591 31.816 256.511 32.136 256.511 32.52C256.511 33.176 256.735 33.712 257.183 34.128C257.647 34.544 258.271 34.752 259.055 34.752C259.695 34.752 260.255 34.6 260.735 34.296C261.231 33.992 261.615 33.576 261.887 33.048C262.175 32.52 262.319 31.912 262.319 31.224V28.488C262.319 27.496 262.119 26.784 261.719 26.352C261.319 25.904 260.663 25.68 259.751 25.68C259.047 25.68 258.367 25.784 257.711 25.992C257.055 26.184 256.383 26.504 255.695 26.952L255.023 25.536C255.439 25.248 255.911 25 256.439 24.792C256.967 24.568 257.519 24.4 258.095 24.288C258.671 24.176 259.223 24.12 259.751 24.12C260.759 24.12 261.591 24.288 262.247 24.624C262.903 24.944 263.391 25.44 263.711 26.112C264.031 26.768 264.191 27.616 264.191 28.656V36H262.367V33.288H262.583C262.455 33.896 262.207 34.416 261.839 34.848C261.487 35.28 261.047 35.616 260.519 35.856C259.991 36.096 259.399 36.216 258.743 36.216ZM271.374 36.216C270.19 36.216 269.294 35.864 268.686 35.16C268.094 34.456 267.798 33.448 267.798 32.136V19.08H269.742V31.992C269.742 32.552 269.814 33.024 269.958 33.408C270.118 33.792 270.35 34.08 270.654 34.272C270.958 34.464 271.334 34.56 271.782 34.56C271.974 34.56 272.158 34.552 272.334 34.536C272.526 34.504 272.702 34.464 272.862 34.416L272.814 36.048C272.558 36.096 272.31 36.136 272.07 36.168C271.846 36.2 271.614 36.216 271.374 36.216Z" fill="#FEF8EC"/>
</svg>
