<svg width="201" height="52" viewBox="0 0 201 52" fill="none" xmlns="http://www.w3.org/2000/svg">
<path d="M200.886 7.69897C200.948 7.12134 200.506 6.61316 199.925 6.59391L1.13345 0.000484072C0.53183 -0.0194701 0.049057 0.49274 0.104553 1.09212L4.72523 51C4.77493 51.5369 5.24142 51.9378 5.77972 51.9061L196.543 40.6794C197.031 40.6506 197.427 40.273 197.479 39.7867L200.886 7.69897Z" fill="#FCF0E1"/>
<path d="M48.764 33.4629L56.3 16.5429H58.364L65.924 33.4629H63.38L61.316 28.6629L62.444 29.3349H52.22L53.324 28.6629L51.284 33.4629H48.764ZM57.308 19.3029L53.684 27.8949L53.084 27.3189H61.556L61.004 27.8949L57.356 19.3029H57.308ZM74.1639 33.6789C73.1399 33.6789 72.2519 33.4229 71.4999 32.9109C70.7479 32.3829 70.2439 31.6869 69.9879 30.8229H70.2519V33.4629H67.8759V16.5429H70.2999V24.3189H70.0119C70.2679 23.4709 70.7719 22.7989 71.5239 22.3029C72.2759 21.7909 73.1559 21.5349 74.1639 21.5349C75.2199 21.5349 76.1319 21.7829 76.8999 22.2789C77.6679 22.7749 78.2599 23.4709 78.6759 24.3669C79.1079 25.2629 79.3239 26.3429 79.3239 27.6069C79.3239 28.8389 79.1079 29.9189 78.6759 30.8469C78.2599 31.7589 77.6599 32.4629 76.8759 32.9589C76.1079 33.4389 75.2039 33.6789 74.1639 33.6789ZM73.5639 31.8069C74.5719 31.8069 75.3719 31.4469 75.9639 30.7269C76.5719 30.0069 76.8759 28.9669 76.8759 27.6069C76.8759 26.2309 76.5719 25.1909 75.9639 24.4869C75.3719 23.7829 74.5719 23.4309 73.5639 23.4309C72.5719 23.4309 71.7719 23.7829 71.1639 24.4869C70.5559 25.1909 70.2519 26.2309 70.2519 27.6069C70.2519 28.9669 70.5559 30.0069 71.1639 30.7269C71.7719 31.4469 72.5719 31.8069 73.5639 31.8069ZM87.1436 33.6789C85.9596 33.6789 84.9356 33.4309 84.0716 32.9349C83.2236 32.4389 82.5596 31.7349 82.0796 30.8229C81.5996 29.9109 81.3596 28.8389 81.3596 27.6069C81.3596 26.3589 81.5996 25.2869 82.0796 24.3909C82.5596 23.4789 83.2236 22.7749 84.0716 22.2789C84.9356 21.7829 85.9596 21.5349 87.1436 21.5349C88.3116 21.5349 89.3196 21.7829 90.1676 22.2789C91.0316 22.7749 91.7036 23.4789 92.1836 24.3909C92.6636 25.3029 92.9036 26.3749 92.9036 27.6069C92.9036 28.8389 92.6636 29.9109 92.1836 30.8229C91.7036 31.7349 91.0316 32.4389 90.1676 32.9349C89.3196 33.4309 88.3116 33.6789 87.1436 33.6789ZM87.1196 31.8069C88.1276 31.8069 88.9356 31.4469 89.5436 30.7269C90.1516 30.0069 90.4556 28.9669 90.4556 27.6069C90.4556 26.2309 90.1516 25.1909 89.5436 24.4869C88.9356 23.7829 88.1276 23.4309 87.1196 23.4309C86.1276 23.4309 85.3276 23.7829 84.7196 24.4869C84.1116 25.1909 83.8076 26.2309 83.8076 27.6069C83.8076 28.9669 84.1116 30.0069 84.7196 30.7269C85.3276 31.4469 86.1276 31.8069 87.1196 31.8069ZM99.8019 33.6789C98.8579 33.6789 98.0659 33.5029 97.4259 33.1509C96.8019 32.7989 96.3299 32.2789 96.0099 31.5909C95.7059 30.8869 95.5539 30.0069 95.5539 28.9509V21.7509H97.9779V28.9749C97.9779 29.5989 98.0579 30.1189 98.2179 30.5349C98.3939 30.9509 98.6579 31.2549 99.0099 31.4469C99.3779 31.6389 99.8339 31.7349 100.378 31.7349C100.986 31.7349 101.522 31.5989 101.986 31.3269C102.45 31.0549 102.81 30.6629 103.066 30.1509C103.322 29.6389 103.45 29.0469 103.45 28.3749V21.7509H105.874V33.4629H103.522V30.8949H103.834C103.514 31.7909 103.002 32.4789 102.298 32.9589C101.594 33.4389 100.762 33.6789 99.8019 33.6789ZM114.282 33.6789C112.826 33.6789 111.73 33.3029 110.994 32.5509C110.274 31.7989 109.914 30.7109 109.914 29.2869V23.6229H107.634V21.7509H109.914V18.2229H112.338V21.7509H115.962V23.6229H112.338V29.0949C112.338 29.9429 112.514 30.5829 112.866 31.0149C113.234 31.4469 113.826 31.6629 114.642 31.6629C114.882 31.6629 115.122 31.6309 115.362 31.5669C115.618 31.5029 115.866 31.4389 116.106 31.3749L116.49 33.1989C116.25 33.3429 115.914 33.4549 115.482 33.5349C115.066 33.6309 114.666 33.6789 114.282 33.6789ZM131.464 33.6789C129.208 33.6789 127.48 33.0869 126.28 31.9029C125.096 30.7189 124.504 28.9669 124.504 26.6469V16.5429H127V26.5989C127 28.2469 127.376 29.4789 128.128 30.2949C128.896 31.1109 130.008 31.5189 131.464 31.5189C132.936 31.5189 134.048 31.1109 134.8 30.2949C135.552 29.4789 135.928 28.2469 135.928 26.5989V16.5429H138.376V26.6469C138.376 28.9669 137.792 30.7189 136.624 31.9029C135.456 33.0869 133.736 33.6789 131.464 33.6789ZM146.066 33.6789C145.442 33.6789 144.834 33.6229 144.242 33.5109C143.65 33.3989 143.106 33.2389 142.61 33.0309C142.114 32.8229 141.674 32.5669 141.29 32.2629L141.986 30.6309C142.386 30.9029 142.81 31.1429 143.258 31.3509C143.706 31.5429 144.17 31.6869 144.65 31.7829C145.146 31.8789 145.626 31.9269 146.09 31.9269C146.938 31.9269 147.578 31.7749 148.01 31.4709C148.442 31.1669 148.658 30.7589 148.658 30.2469C148.658 29.8309 148.514 29.5109 148.226 29.2869C147.938 29.0469 147.506 28.8629 146.93 28.7349L144.65 28.2789C143.658 28.0709 142.906 27.7029 142.394 27.1749C141.882 26.6469 141.626 25.9749 141.626 25.1589C141.626 24.4229 141.826 23.7829 142.226 23.2389C142.626 22.6949 143.186 22.2789 143.906 21.9909C144.626 21.6869 145.458 21.5349 146.402 21.5349C146.946 21.5349 147.474 21.5909 147.986 21.7029C148.498 21.8149 148.978 21.9749 149.426 22.1829C149.89 22.3909 150.282 22.6549 150.602 22.9749L149.906 24.6069C149.602 24.3349 149.25 24.1029 148.85 23.9109C148.466 23.7189 148.066 23.5749 147.65 23.4789C147.234 23.3669 146.818 23.3109 146.402 23.3109C145.554 23.3109 144.914 23.4709 144.482 23.7909C144.066 24.0949 143.858 24.5109 143.858 25.0389C143.858 25.4389 143.986 25.7669 144.242 26.0229C144.498 26.2789 144.898 26.4629 145.442 26.5749L147.722 27.0309C148.762 27.2389 149.546 27.5909 150.074 28.0869C150.618 28.5829 150.89 29.2549 150.89 30.1029C150.89 30.8389 150.69 31.4789 150.29 32.0229C149.89 32.5669 149.322 32.9829 148.586 33.2709C147.866 33.5429 147.026 33.6789 146.066 33.6789Z" fill="#903934"/>
</svg>
