<svg width="1180" height="406" viewBox="0 0 1180 406" fill="none" xmlns="http://www.w3.org/2000/svg" xmlns:xlink="http://www.w3.org/1999/xlink">
<rect width="1180" height="406" rx="8" fill="#3A0C1C"/>
<rect width="1180" height="406" rx="8" fill="url(#pattern0_6440_4019)" fill-opacity="0.2"/>
<defs>
<pattern id="pattern0_6440_4019" patternUnits="userSpaceOnUse" patternTransform="matrix(100.699 0 0 100.705 0 0)" preserveAspectRatio="none" viewBox="0 0 100.699 100.705" width="1" height="1">
<use xlink:href="#pattern0_6440_4019_inner" transform="translate(0 -100.705)"/>
<g id="pattern0_6440_4019_inner">
<path d="M29.9634 72.4835C32.8072 68.6045 37.2683 66.6931 41.3609 67.5652C44.6216 68.2601 46.5431 70.4836 47.2339 71.4C50.1945 75.3314 50.4584 81.6717 47.1835 84.7169C46.9922 84.8961 44.4343 87.2002 41.4555 86.3523C38.9662 85.6434 37.0891 82.9909 37.365 80.435C37.4053 80.0644 37.657 78.1491 39.2945 77.1038C41.0628 75.9759 43.7415 76.3123 44.9842 77.9638C45.6065 78.7916 46.0073 80.1289 45.5038 81.3675C45.4172 81.581 44.9419 82.7512 43.6911 83.1298C42.672 83.438 41.526 83.1077 40.7204 82.2739C40.8332 82.5155 41.1172 83.0291 41.7073 83.3937C42.5572 83.9193 43.4334 83.7582 43.6589 83.7159C45.0426 83.4601 45.8079 82.2195 46.0637 81.8066C47.7797 79.0272 46.0959 75.3113 45.9126 74.9205C44.1262 71.122 40.235 69.9841 39.7819 69.8612C34.495 68.4091 30.2514 72.2137 29.9634 72.4795L29.9634 72.4835Z" fill="#935E1D"/>
<path d="M28.4432 74.2179C28.4251 74.1998 27.0555 75.3478 25.0193 77.9439C22.5138 81.1382 21.2611 82.7776 21.3175 84.9045C21.3296 85.3395 21.386 87.4522 22.9287 88.6305C23.69 89.2105 24.5017 89.3253 24.7656 89.3596C25.1019 89.4039 26.6688 89.563 27.9377 88.4149C28.133 88.2377 29.279 87.1642 29.1965 85.557C29.124 84.1351 28.0948 82.3748 26.5278 82.3224C25.5148 82.2882 24.3023 82.969 24.0345 84.1109C23.7464 85.3395 24.6326 86.7735 26.1673 87.1239C26.0203 87.2105 25.2328 87.6476 24.3748 87.3455C23.7605 87.13 23.4423 86.6527 23.2792 86.4009C22.5682 85.3032 22.7575 84.0163 22.8139 83.6316C23.3476 80.0002 28.4815 74.2541 28.4412 74.2159L28.4432 74.2179Z" fill="#935E1D"/>
<path d="M14.7673 88.4685C14.1631 88.8068 11.9113 90.1643 11.142 92.8994C11.0634 93.1773 10.0222 97.0866 12.3504 98.8912C13.3655 99.6787 14.7713 99.87 15.9253 99.5458C16.2355 99.4592 17.9777 98.9697 18.1408 97.7331C18.2878 96.6173 17.0774 95.429 16.026 95.3404C15.1963 95.2719 14.6948 95.9084 14.1127 95.6184C13.6475 95.3867 13.5226 94.7604 13.4581 94.4099C13.0694 92.3173 14.3081 89.4574 14.7673 88.4685Z" fill="#935E1D"/>
<path d="M28.2289 70.7607C32.1079 67.9169 34.0193 63.4558 33.1472 59.3632C32.4523 56.1025 30.2288 54.1811 29.3124 53.4902C25.381 50.5296 19.0407 50.2657 15.9955 53.5406C15.8163 53.7319 13.5122 56.2898 14.3601 59.2686C15.069 61.7579 17.7215 63.635 20.2774 63.3591C20.648 63.3188 22.5633 63.0671 23.6086 61.4296C24.7365 59.6613 24.4001 56.9826 22.7486 55.7399C21.9208 55.1176 20.5835 54.7168 19.3449 55.2203C19.1314 55.3069 17.9612 55.7823 17.5826 57.033C17.2744 58.0521 17.6047 59.1981 18.4385 60.0037C18.1969 59.8909 17.6833 59.6069 17.3187 59.0168C16.7931 58.1669 16.9542 57.2908 16.9965 57.0652C17.2523 55.6815 18.4929 54.9162 18.9058 54.6604C21.6852 52.9444 25.4011 54.6282 25.7919 54.8115C29.5904 56.5979 30.7283 60.4891 30.8512 60.9422C32.3033 66.2291 28.4987 70.4727 28.2329 70.7607L28.2289 70.7607Z" fill="#935E1D"/>
<path d="M26.4816 72.2709C26.4997 72.289 25.3517 73.6586 22.7556 75.6948C19.5613 78.2003 17.9218 79.453 15.795 79.3966C15.36 79.3845 13.2472 79.3281 12.069 77.7854C11.489 77.0241 11.3742 76.2124 11.3399 75.9486C11.2956 75.6122 11.1365 74.0453 12.2845 72.7764C12.4618 72.5811 13.5352 71.4351 15.1424 71.5176C16.5644 71.5901 18.3247 72.6193 18.377 74.1863C18.4113 75.1993 17.7305 76.4118 16.5885 76.6797C15.36 76.9677 13.926 76.0815 13.5755 74.5468C13.4889 74.6938 13.0519 75.4813 13.354 76.3393C13.5695 76.9536 14.0468 77.2718 14.2986 77.4349C15.3962 78.1459 16.6832 77.9566 17.0679 77.9002C20.6992 77.3665 26.4453 72.2326 26.4836 72.2729L26.4816 72.2709Z" fill="#935E1D"/>
<path d="M12.2376 85.9669C11.8992 86.5711 10.5418 88.8228 7.80667 89.5922C7.52873 89.6707 3.61945 90.712 1.81486 88.3837C1.02737 87.3686 0.836034 85.9628 1.1603 84.8088C1.2469 84.4986 1.73632 82.7565 2.97294 82.5933C4.08873 82.4463 5.27702 83.6567 5.36564 84.7081C5.43412 85.5379 4.79767 86.0394 5.0877 86.6214C5.31931 87.0867 5.94568 87.2115 6.29613 87.276C8.38873 87.6647 11.2487 86.4261 12.2376 85.9669Z" fill="#935E1D"/>
<path d="M6.19478 91.4538C5.5825 91.8486 5.45159 92.3279 4.507 92.8133C4.06391 93.0409 3.46372 93.339 2.69435 93.2403C1.87665 93.1356 1.33688 92.6421 1.13346 92.4347C1.11534 92.628 1.0388 93.6169 1.73768 94.3984C2.37009 95.1073 3.40733 95.3833 4.40831 95.1214C3.95112 95.2846 3.17974 95.6531 2.56747 96.4628C1.77594 97.5121 1.76589 98.6198 1.77394 98.9421L1.78803 98.928C2.11632 98.936 3.21801 98.9239 4.26331 98.1344C5.07296 97.5222 5.44352 96.7528 5.60465 96.2936C5.34282 97.2946 5.61876 98.3318 6.32771 98.9642C7.10916 99.6631 8.09806 99.5866 8.29141 99.5684C8.08396 99.365 7.59052 98.8253 7.48579 98.0076C7.3871 97.2382 7.68518 96.638 7.91277 96.1949C8.39816 95.2523 8.8775 95.1194 9.27225 94.5071C9.6368 93.9432 9.91674 92.9825 9.43538 91.2726L9.42129 91.2867C7.71338 90.8073 6.75468 91.0873 6.19074 91.4518L6.19478 91.4538Z" fill="#935E1D"/>
<path d="M19.0677 84.1015C19.0677 82.7456 17.9685 81.6464 16.6126 81.6464C15.2567 81.6464 14.1575 82.7456 14.1575 84.1015C14.1575 85.4574 15.2567 86.5566 16.6126 86.5566C17.9685 86.5566 19.0677 85.4574 19.0677 84.1015Z" fill="#935E1D"/>
<path d="M28.2289 29.9704C32.1079 32.8142 34.0193 37.2753 33.1472 41.3679C32.4523 44.6286 30.2288 46.55 29.3124 47.2409C25.381 50.2015 19.0407 50.4654 15.9955 47.1905C15.8163 46.9992 13.5122 44.4413 14.3601 41.4625C15.069 38.9732 17.7215 37.0961 20.2774 37.372C20.648 37.4123 22.5633 37.664 23.6086 39.3015C24.7365 41.0698 24.4001 43.7485 22.7486 44.9912C21.9208 45.6135 20.5835 46.0143 19.3449 45.5108C19.1314 45.4242 17.9612 44.9489 17.5826 43.6981C17.2744 42.679 17.6047 41.533 18.4385 40.7274C18.1969 40.8402 17.6833 41.1242 17.3187 41.7143C16.7931 42.5642 16.9542 43.4403 16.9965 43.6659C17.2523 45.0496 18.4929 45.8149 18.9058 46.0707C21.6852 47.7867 25.4011 46.1029 25.7919 45.9196C29.5904 44.1332 30.7283 40.242 30.8512 39.7889C32.3033 34.502 28.4987 30.2584 28.2329 29.9704L28.2289 29.9704Z" fill="#935E1D"/>
<path d="M26.4816 28.4564C26.4997 28.4382 25.3517 27.0687 22.7556 25.0325C19.5613 22.527 17.9218 21.2743 15.795 21.3306C15.36 21.3427 13.2472 21.3991 12.069 22.9419C11.489 23.7032 11.3742 24.5149 11.3399 24.7787C11.2956 25.115 11.1365 26.682 12.2845 27.9508C12.4618 28.1462 13.5352 29.2922 15.1424 29.2096C16.5644 29.1371 18.3247 28.1079 18.377 26.541C18.4113 25.5279 17.7305 24.3155 16.5885 24.0476C15.36 23.7596 13.926 24.6458 13.5755 26.1805C13.4889 26.0334 13.0519 25.246 13.354 24.388C13.5695 23.7737 14.0468 23.4555 14.2986 23.2923C15.3962 22.5814 16.6832 22.7707 17.0679 22.8271C20.6992 23.3608 26.4453 28.4946 26.4836 28.4543L26.4816 28.4564Z" fill="#935E1D"/>
<path d="M12.2376 14.7608C11.8992 14.1565 10.5418 11.9048 7.80667 11.1355C7.52873 11.0569 3.61945 10.0156 1.81486 12.3439C1.02737 13.359 0.836034 14.7648 1.1603 15.9188C1.2469 16.229 1.73632 17.9712 2.97294 18.1343C4.08873 18.2813 5.27702 17.0709 5.36564 16.0195C5.43412 15.1897 4.79767 14.6882 5.0877 14.1062C5.31931 13.6409 5.94568 13.5161 6.29613 13.4516C8.38873 13.0629 11.2487 14.3015 12.2376 14.7608Z" fill="#935E1D"/>
<path d="M29.9312 28.2212C32.775 32.1002 37.2361 34.0116 41.3287 33.1395C44.5894 32.4446 46.5108 30.2211 47.2016 29.3047C50.1623 25.3733 50.4261 19.033 47.1513 15.9878C46.96 15.8085 44.4021 13.5045 41.4233 14.3524C38.934 15.0613 37.0569 17.7138 37.3328 20.2697C37.3731 20.6402 37.6248 22.5556 39.2622 23.6009C41.0306 24.7288 43.7093 24.3924 44.9519 22.7409C45.5743 21.9132 45.9751 20.5758 45.4716 19.3372C45.385 19.1237 44.9096 17.9535 43.6589 17.5749C42.6398 17.2667 41.4938 17.597 40.6882 18.4309C40.801 18.1892 41.085 17.6756 41.6751 17.311C42.525 16.7854 43.4011 16.9465 43.6267 16.9888C45.0104 17.2446 45.7757 18.4852 46.0315 18.8981C47.7474 21.6775 46.0637 25.3934 45.8804 25.7842C44.094 29.5827 40.2028 30.7206 39.7497 30.8435C34.4628 32.2956 30.2192 28.491 29.9312 28.2252L29.9312 28.2212Z" fill="#935E1D"/>
<path d="M28.4271 26.4882C28.409 26.5063 27.0394 25.3583 25.0032 22.7622C22.4977 19.5679 21.245 17.9285 21.3014 15.8016C21.3135 15.3666 21.3699 13.2539 22.9126 12.0756C23.6739 11.4956 24.4856 11.3808 24.7494 11.3466C25.0858 11.3023 26.6527 11.1432 27.9216 12.2912C28.1169 12.4684 29.2629 13.5419 29.1804 15.1491C29.1078 16.571 28.0787 18.3313 26.5117 18.3837C25.4987 18.4179 24.2862 17.7371 24.0183 16.5952C23.7303 15.3666 24.6165 13.9326 26.1512 13.5822C26.0042 13.4956 25.2167 13.0585 24.3587 13.3606C23.7444 13.5761 23.4262 14.0535 23.2631 14.3052C22.5521 15.4029 22.7414 16.6899 22.7978 17.0745C23.3315 20.7059 28.4654 26.452 28.4251 26.4902L28.4271 26.4882Z" fill="#935E1D"/>
<path d="M14.735 12.2373C14.1308 11.8989 11.8791 10.5415 11.1097 7.80639C11.0312 7.52845 9.98993 3.61917 12.3182 1.81458C13.3333 1.02709 14.7391 0.835754 15.8931 1.16002C16.2033 1.24662 17.9454 1.73604 18.1086 2.97266C18.2556 4.08845 17.0452 5.27672 15.9938 5.36533C15.164 5.43381 14.6625 4.7974 14.0805 5.08742C13.6152 5.31903 13.4904 5.94541 13.4259 6.29585C13.0372 8.38845 14.2758 11.2484 14.735 12.2373Z" fill="#935E1D"/>
<path d="M9.24809 6.1947C8.85333 5.58243 8.37399 5.45154 7.8886 4.50695C7.66101 4.06386 7.36293 3.46367 7.46162 2.6943C7.56635 1.87659 8.0598 1.33683 8.26724 1.13341C8.07389 1.11528 7.08499 1.03875 6.30354 1.73763C5.5946 2.37004 5.31865 3.40723 5.58048 4.40821C5.41734 3.95102 5.04879 3.17966 4.23914 2.56739C3.18982 1.77587 2.08208 1.76581 1.75983 1.77386L1.77394 1.78798C1.76588 2.11627 1.77796 3.21791 2.56747 4.26321C3.17974 5.07286 3.94911 5.44347 4.40831 5.6046C3.40733 5.34277 2.37009 5.61866 1.73768 6.32761C1.0388 7.10906 1.11534 8.09796 1.13346 8.29131C1.33688 8.08386 1.87665 7.59042 2.69435 7.48569C3.46372 7.387 4.06391 7.6851 4.507 7.91269C5.44958 8.39808 5.5825 8.87742 6.19478 9.27218C6.75871 9.63672 7.7194 9.91669 9.42933 9.43533L9.41524 9.42122C9.89459 7.7133 9.61465 6.7546 9.2501 6.19067L9.24809 6.1947Z" fill="#935E1D"/>
<path d="M19.0516 16.6103C19.0516 15.2544 17.9524 14.1552 16.5965 14.1552C15.2406 14.1552 14.1414 15.2544 14.1414 16.6103C14.1414 17.9662 15.2406 19.0654 16.5965 19.0654C17.9524 19.0654 19.0516 17.9662 19.0516 16.6103Z" fill="#935E1D"/>
<path d="M70.7337 28.2202C67.8899 32.0992 63.4288 34.0106 59.3362 33.1385C56.0755 32.4437 54.1541 30.2201 53.4632 29.3037C50.5026 25.3723 50.2387 19.0321 53.5136 15.9868C53.7049 15.8076 56.2628 13.5035 59.2416 14.3514C61.7309 15.0604 63.608 17.7128 63.3321 20.2687C63.2918 20.6393 63.0401 22.5547 61.4026 23.6C59.6343 24.7278 56.9556 24.3915 55.7129 22.74C55.0906 21.9122 54.6898 20.5748 55.1933 19.3362C55.2799 19.1227 55.7552 17.9525 57.006 17.5739C58.0251 17.2658 59.1711 17.5961 59.9767 18.4299C59.8639 18.1882 59.5799 17.6746 58.9898 17.31C58.1399 16.7844 57.2638 16.9455 57.0382 16.9878C55.6545 17.2436 54.8892 18.4843 54.6334 18.8971C52.9174 21.6765 54.6012 25.3925 54.7845 25.7832C56.5709 29.5817 60.4621 30.7196 60.9152 30.8425C66.2021 32.2946 70.4457 28.4901 70.7337 28.2242L70.7337 28.2202Z" fill="#935E1D"/>
<path d="M72.2448 26.4833C72.2629 26.5015 73.6325 25.3535 75.6687 22.7573C78.1742 19.5631 79.4269 17.9236 79.3705 15.7968C79.3584 15.3617 79.302 13.249 77.7593 12.0708C76.998 11.4907 76.1863 11.3759 75.9225 11.3417C75.5861 11.2974 74.0192 11.1383 72.7503 12.2863C72.555 12.4635 71.409 13.537 71.4916 15.1442C71.5641 16.5661 72.5932 18.3264 74.1602 18.3788C75.1732 18.413 76.3857 17.7323 76.6536 16.5903C76.9416 15.3617 76.0554 13.9277 74.5207 13.5773C74.6677 13.4907 75.4552 13.0536 76.3132 13.3558C76.9275 13.5713 77.2457 14.0486 77.4088 14.3003C78.1198 15.398 77.9305 16.685 77.8741 17.0697C77.3404 20.701 72.2065 26.4471 72.2468 26.4854L72.2448 26.4833Z" fill="#935E1D"/>
<path d="M85.939 12.2363C86.5432 11.898 88.7949 10.5405 89.5643 7.80541C89.6428 7.52747 90.6841 3.6182 88.3558 1.81361C87.3407 1.02611 85.9349 0.834778 84.7809 1.15904C84.4707 1.24564 82.7286 1.73506 82.5654 2.97169C82.4184 4.08747 83.6288 5.27574 84.6802 5.36436C85.51 5.43284 86.0115 4.79642 86.5935 5.08644C87.0588 5.31806 87.1836 5.94443 87.2481 6.29487C87.6368 8.38747 86.3982 11.2474 85.939 12.2363Z" fill="#935E1D"/>
<path d="M72.4822 29.943C68.6031 32.7869 66.6918 37.248 67.5639 41.3405C68.2587 44.6013 70.4823 46.5227 71.3987 47.2135C75.3301 50.1742 81.6703 50.438 84.7156 47.1632C84.8948 46.9718 87.1989 44.414 86.351 41.4352C85.642 38.9458 82.9895 37.0687 80.4337 37.3447C80.0631 37.3849 78.1477 37.6367 77.1024 39.2741C75.9746 41.0425 76.3109 43.7211 77.9624 44.9638C78.7902 45.5862 80.1276 45.9869 81.3662 45.4834C81.5797 45.3968 82.7498 44.9215 83.1285 43.6708C83.4366 42.6517 83.1063 41.5057 82.2725 40.7001C82.5142 40.8128 83.0278 41.0968 83.3923 41.6869C83.918 42.5369 83.7569 43.413 83.7146 43.6386C83.4588 45.0222 82.2181 45.7876 81.8052 46.0433C79.0259 47.7593 75.3099 46.0756 74.9192 45.8923C71.1207 44.1058 69.9828 40.2147 69.8599 39.7615C68.4078 34.4746 72.2123 30.231 72.4782 29.943L72.4822 29.943Z" fill="#935E1D"/>
<path d="M74.2117 28.4339C74.1936 28.4158 75.3416 27.0462 77.9377 25.01C81.132 22.5045 82.7715 21.2518 84.8983 21.3082C85.3333 21.3203 87.4461 21.3767 88.6243 22.9194C89.2043 23.6807 89.3191 24.4924 89.3534 24.7562C89.3977 25.0926 89.5568 26.6595 88.4088 27.9284C88.2315 28.1237 87.1581 29.2697 85.5509 29.1872C84.1289 29.1147 82.3686 28.0855 82.3163 26.5185C82.282 25.5055 82.9628 24.293 84.1048 24.0251C85.3334 23.7371 86.7673 24.6233 87.1178 26.158C87.2044 26.011 87.6414 25.2235 87.3393 24.3655C87.1238 23.7512 86.6465 23.433 86.3947 23.2699C85.2971 22.5589 84.0101 22.7482 83.6254 22.8046C79.9941 23.3383 74.248 28.4722 74.2097 28.4319L74.2117 28.4339Z" fill="#935E1D"/>
<path d="M88.4624 14.7334C88.8008 14.1292 90.1582 11.8775 92.8933 11.1081C93.1713 11.0296 97.0805 9.9883 98.8851 12.3165C99.6726 13.3316 99.864 14.7374 99.5397 15.8915C99.4531 16.2017 98.9637 17.9438 97.727 18.1069C96.6113 18.254 95.423 17.0435 95.3344 15.9922C95.2659 15.1624 95.9023 14.6609 95.6123 14.0788C95.3807 13.6136 94.7543 13.4887 94.4039 13.4243C92.3113 13.0356 89.4513 14.2742 88.4624 14.7334Z" fill="#935E1D"/>
<path d="M94.5053 9.25113C95.1175 8.85637 95.2484 8.37703 96.193 7.89164C96.6361 7.66405 97.2363 7.366 98.0057 7.46469C98.8234 7.56942 99.3631 8.06286 99.5665 8.27031C99.5847 8.07696 99.6612 7.08806 98.9623 6.30661C98.3299 5.59766 97.2927 5.32172 96.2917 5.58354C96.7489 5.42041 97.5203 5.05185 98.1326 4.2422C98.9241 3.19288 98.9341 2.08514 98.9261 1.76289L98.912 1.777C98.5837 1.76895 97.482 1.78102 96.4367 2.57053C95.6271 3.1828 95.2565 3.95215 95.0954 4.41135C95.3572 3.41037 95.0813 2.37313 94.3723 1.74072C93.5909 1.04184 92.602 1.11837 92.4086 1.1365C92.6161 1.33992 93.1095 1.87969 93.2143 2.69739C93.3129 3.46676 93.0148 4.06695 92.7873 4.51004C92.3019 5.45262 91.8225 5.58557 91.4278 6.19784C91.0632 6.76178 90.7833 7.72249 91.2646 9.43242L91.2787 9.41831C92.9867 9.89765 93.9453 9.61769 94.5093 9.25314L94.5053 9.25113Z" fill="#935E1D"/>
<path d="M86.5506 16.5995C86.5506 15.2436 85.4514 14.1444 84.0955 14.1444C82.7396 14.1444 81.6404 15.2436 81.6404 16.5995C81.6404 17.9555 82.7396 19.0547 84.0955 19.0547C85.4514 19.0547 86.5506 17.9555 86.5506 16.5995Z" fill="#935E1D"/>
<path d="M72.4827 70.7344C68.6036 67.8905 66.6923 63.4294 67.5644 59.3369C68.2592 56.0761 70.4827 54.1547 71.3991 53.4639C75.3306 50.5032 81.6708 50.2394 84.7161 53.5142C84.8953 53.7056 87.1994 56.2634 86.3515 59.2422C85.6425 61.7316 82.99 63.6087 80.4342 63.3327C80.0636 63.2925 78.1482 63.0407 77.1029 61.4033C75.9751 59.6349 76.3114 56.9563 77.9629 55.7136C78.7907 55.0912 80.128 54.6905 81.3667 55.194C81.5802 55.2806 82.7503 55.7559 83.129 57.0066C83.4371 58.0257 83.1068 59.1717 82.273 59.9773C82.5147 59.8646 83.0283 59.5806 83.3928 58.9904C83.9185 58.1405 83.7573 57.2644 83.715 57.0388C83.4593 55.6552 82.2186 54.8898 81.8057 54.6341C79.0263 52.9181 75.3104 54.6018 74.9197 54.7851C71.1212 56.5716 69.9833 60.4627 69.8604 60.9159C68.4083 66.2028 72.2128 70.4464 72.4787 70.7344L72.4827 70.7344Z" fill="#935E1D"/>
<path d="M74.2122 72.2484C74.1941 72.2666 75.3421 73.6361 77.9382 75.6723C81.1325 78.1778 82.772 79.4305 84.8988 79.3742C85.3338 79.3621 87.4466 79.3057 88.6248 77.7629C89.2048 77.0016 89.3196 76.1899 89.3539 75.9261C89.3982 75.5898 89.5573 74.0228 88.4093 72.754C88.232 72.5586 87.1586 71.4126 85.5513 71.4952C84.1294 71.5677 82.3691 72.5969 82.3168 74.1638C82.2825 75.1769 82.9633 76.3893 84.1053 76.6572C85.3338 76.9452 86.7678 76.059 87.1183 74.5243C87.2049 74.6714 87.6419 75.4588 87.3398 76.3168C87.1243 76.9311 86.647 77.2493 86.3952 77.4125C85.2976 78.1234 84.0106 77.9341 83.6259 77.8777C79.9946 77.344 74.2485 72.2102 74.2102 72.2505L74.2122 72.2484Z" fill="#935E1D"/>
<path d="M88.4629 85.9424C88.8013 86.5467 90.1587 88.7984 92.8938 89.5677C93.1717 89.6463 97.081 90.6876 98.8856 88.3593C99.6731 87.3442 99.8644 85.9384 99.5402 84.7844C99.4536 84.4742 98.9642 82.732 97.7275 82.5689C96.6117 82.4219 95.4235 83.6323 95.3349 84.6837C95.2664 85.5135 95.9028 86.015 95.6128 86.597C95.3812 87.0623 94.7548 87.1871 94.4043 87.2516C92.3117 87.6403 89.4518 86.4017 88.4629 85.9424Z" fill="#935E1D"/>
<path d="M70.7503 72.4835C67.9065 68.6045 63.4454 66.6931 59.3528 67.5652C56.0921 68.2601 54.1707 70.4836 53.4798 71.4C50.5192 75.3314 50.2553 81.6717 53.5302 84.7169C53.7215 84.8962 56.2794 87.2002 59.2582 86.3523C61.7475 85.6434 63.6246 82.9909 63.3487 80.435C63.3084 80.0644 63.0567 78.1491 61.4192 77.1038C59.6509 75.9759 56.9722 76.3123 55.7295 77.9638C55.1072 78.7916 54.7064 80.1289 55.2099 81.3675C55.2965 81.581 55.7718 82.7512 57.0226 83.1298C58.0417 83.438 59.1877 83.1077 59.9933 82.2739C59.8805 82.5155 59.5965 83.0291 59.0064 83.3937C58.1565 83.9193 57.2804 83.7582 57.0548 83.7159C55.6711 83.4601 54.9058 82.2195 54.65 81.8066C52.934 79.0272 54.6178 75.3113 54.8011 74.9205C56.5875 71.122 60.4787 69.9841 60.9318 69.8612C66.2187 68.4091 70.4623 72.2137 70.7503 72.4795L70.7503 72.4835Z" fill="#935E1D"/>
<path d="M72.2614 74.2179C72.2795 74.1998 73.6491 75.3478 75.6853 77.9439C78.1908 81.1382 79.4435 82.7776 79.3871 84.9045C79.375 85.3395 79.3186 87.4522 77.7759 88.6305C77.0146 89.2105 76.2029 89.3253 75.9391 89.3596C75.6027 89.4039 74.0358 89.563 72.7669 88.4149C72.5716 88.2377 71.4256 87.1642 71.5082 85.557C71.5807 84.1351 72.6098 82.3748 74.1768 82.3224C75.1898 82.2882 76.4023 82.969 76.6702 84.1109C76.9582 85.3395 76.072 86.7735 74.5373 87.1239C74.6843 87.2105 75.4718 87.6476 76.3298 87.3455C76.9441 87.13 77.2623 86.6527 77.4254 86.4009C78.1364 85.3032 77.9471 84.0163 77.8907 83.6316C77.357 80.0002 72.2231 74.2541 72.2634 74.2159L72.2614 74.2179Z" fill="#935E1D"/>
<path d="M85.9714 88.4685C86.5756 88.8068 88.8274 90.1643 89.5967 92.8994C89.6753 93.1773 90.7165 97.0866 88.3883 98.8912C87.3732 99.6787 85.9674 99.87 84.8133 99.5458C84.5032 99.4592 82.761 98.9697 82.5979 97.7331C82.4509 96.6173 83.6613 95.429 84.7126 95.3404C85.5424 95.2719 86.0439 95.9084 86.626 95.6184C87.0912 95.3867 87.2161 94.7604 87.2806 94.4099C87.6693 92.3173 86.4306 89.4574 85.9714 88.4685Z" fill="#935E1D"/>
<path d="M91.4627 94.511C91.8575 95.1233 92.3368 95.2542 92.8222 96.1988C93.0498 96.6419 93.3479 97.2421 93.2492 98.0115C93.1444 98.8292 92.651 99.3689 92.4436 99.5723C92.6369 99.5905 93.6258 99.667 94.4073 98.9681C95.1162 98.3357 95.3921 97.2985 95.1303 96.2975C95.2935 96.7547 95.662 97.5261 96.4717 98.1383C97.521 98.9299 98.6287 98.9399 98.951 98.9319L98.9369 98.9178C98.9449 98.5895 98.9328 97.4878 98.1433 96.4425C97.5311 95.6329 96.7617 95.2623 96.3025 95.1012C97.3035 95.363 98.3407 95.087 98.9732 94.3781C99.672 93.5966 99.5955 92.6077 99.5774 92.4144C99.3739 92.6218 98.8342 93.1153 98.0165 93.22C97.2471 93.3187 96.6469 93.0206 96.2038 92.793C95.2613 92.3077 95.1283 91.8283 94.516 91.4336C93.9521 91.069 92.9914 90.7891 91.2814 91.2704L91.2956 91.2845C90.8162 92.9924 91.0962 93.9511 91.4607 94.5151L91.4627 94.511Z" fill="#935E1D"/>
<path d="M86.5512 84.0908C86.5512 82.7348 85.452 81.6356 84.096 81.6356C82.7401 81.6356 81.6409 82.7349 81.6409 84.0908C81.6409 85.4467 82.7401 86.5459 84.096 86.5459C85.452 86.5459 86.5512 85.4467 86.5512 84.0908Z" fill="#935E1D"/>
<path d="M54.812 62.4574C53.3397 64.6064 51.8694 66.7533 50.3972 68.9023C48.8907 66.7594 47.3861 64.6164 45.8796 62.4735C47.3861 60.3023 48.8907 58.1332 50.3972 55.9621C51.8694 58.1272 53.3397 60.2923 54.812 62.4574Z" fill="#AF5B37"/>
<path d="M54.812 62.4574C53.3397 64.6064 51.8694 66.7533 50.3972 68.9023C48.8907 66.7594 47.3861 64.6164 45.8796 62.4735C47.3861 60.3023 48.8907 58.1332 50.3972 55.9621C51.8694 58.1272 53.3397 60.2923 54.812 62.4574Z"/>
<path d="M54.812 38.2884C53.3397 40.4374 51.8694 42.5844 50.3972 44.7334C48.8907 42.5904 47.3861 40.4475 45.8796 38.3045C47.3861 36.1334 48.8907 33.9643 50.3972 31.7931C51.8694 33.9582 53.3397 36.1233 54.812 38.2884Z" fill="#AF5B37"/>
<path d="M54.812 38.2884C53.3397 40.4374 51.8694 42.5844 50.3972 44.7334C48.8907 42.5904 47.3861 40.4475 45.8796 38.3045C47.3861 36.1334 48.8907 33.9643 50.3972 31.7931C51.8694 33.9582 53.3397 36.1233 54.812 38.2884Z"/>
<path d="M62.4638 45.888C64.6128 47.3602 66.7598 48.8305 68.9088 50.3028C66.7658 51.8093 64.6229 53.3138 62.4799 54.8203C60.3088 53.3138 58.1397 51.8093 55.9685 50.3028C58.1336 48.8305 60.2987 47.3602 62.4638 45.888Z" fill="#AF5B37"/>
<path d="M62.4638 45.888C64.6128 47.3602 66.7598 48.8305 68.9088 50.3028C66.7658 51.8093 64.6229 53.3138 62.4799 54.8203C60.3088 53.3138 58.1397 51.8093 55.9685 50.3028C58.1336 48.8305 60.2987 47.3602 62.4638 45.888Z"/>
<path d="M38.2985 45.888C40.4475 47.3602 42.5945 48.8305 44.7435 50.3028C42.6006 51.8093 40.4576 53.3138 38.3146 54.8203C36.1435 53.3138 33.9744 51.8093 31.8032 50.3028C33.9683 48.8305 36.1334 47.3602 38.2985 45.888Z" fill="#AF5B37"/>
<path d="M38.2985 45.888C40.4475 47.3602 42.5945 48.8305 44.7435 50.3028C42.6006 51.8093 40.4576 53.3138 38.3146 54.8203C36.1435 53.3138 33.9744 51.8093 31.8032 50.3028C33.9683 48.8305 36.1334 47.3602 38.2985 45.888Z"/>
<path d="M10.1145 45.8889C12.2635 47.3612 14.4104 48.8315 16.5594 50.3038C14.4165 51.8103 12.2735 53.3148 10.1306 54.8213C7.95941 53.3148 5.79029 51.8103 3.61914 50.3038C5.78425 48.8315 7.94935 47.3612 10.1145 45.8889Z" fill="#AF5B37"/>
<path d="M10.1145 45.8889C12.2635 47.3612 14.4104 48.8315 16.5594 50.3038C14.4165 51.8103 12.2735 53.3148 10.1306 54.8213C7.95941 53.3148 5.79029 51.8103 3.61914 50.3038C5.78425 48.8315 7.94935 47.3612 10.1145 45.8889Z"/>
<path d="M1.51054 50.3518C1.51054 49.5179 0.833817 48.8412 -1.32056e-07 48.8412L0 51.8623C0.833818 51.8623 1.51054 51.1856 1.51054 50.3518Z" fill="#AF5B37"/>
<path d="M1.51054 50.3518C1.51054 49.5179 0.833817 48.8412 -1.32056e-07 48.8412L0 51.8623C0.833818 51.8623 1.51054 51.1856 1.51054 50.3518Z"/>
<path d="M54.8103 10.1195C53.338 12.2685 51.8677 14.4155 50.3955 16.5645C48.8889 14.4215 47.3844 12.2786 45.8779 10.1356C47.3844 7.96447 48.8889 5.79531 50.3955 3.62417C51.8677 5.78927 53.338 7.95438 54.8103 10.1195Z" fill="#AF5B37"/>
<path d="M54.8103 10.1195C53.338 12.2685 51.8677 14.4155 50.3955 16.5645C48.8889 14.4215 47.3844 12.2786 45.8779 10.1356C47.3844 7.96447 48.8889 5.79531 50.3955 3.62417C51.8677 5.78927 53.338 7.95438 54.8103 10.1195Z"/>
<path d="M50.3511 1.51074C51.1849 1.51074 51.8617 0.834021 51.8617 0.000203001L48.8406 0.000203133C48.8406 0.834021 49.5173 1.51074 50.3511 1.51074Z" fill="#AF5B37"/>
<path d="M50.3511 1.51074C51.1849 1.51074 51.8617 0.834021 51.8617 0.000203001L48.8406 0.000203133C48.8406 0.834021 49.5173 1.51074 50.3511 1.51074Z"/>
<path d="M90.6306 45.8889C92.7796 47.3612 94.9265 48.8315 97.0755 50.3038C94.9326 51.8103 92.7897 53.3148 90.6467 54.8213C88.4756 53.3148 86.3064 51.8103 84.1353 50.3038C86.3004 48.8315 88.4655 47.3612 90.6306 45.8889Z" fill="#AF5B37"/>
<path d="M90.6306 45.8889C92.7796 47.3612 94.9265 48.8315 97.0755 50.3038C94.9326 51.8103 92.7897 53.3148 90.6467 54.8213C88.4756 53.3148 86.3064 51.8103 84.1353 50.3038C86.3004 48.8315 88.4655 47.3612 90.6306 45.8889Z"/>
<path d="M99.1887 50.3518C99.1887 51.1856 99.8654 51.8623 100.699 51.8623L100.699 48.8412C99.8654 48.8412 99.1887 49.5179 99.1887 50.3518Z" fill="#AF5B37"/>
<path d="M99.1887 50.3518C99.1887 51.1856 99.8654 51.8623 100.699 51.8623L100.699 48.8412C99.8654 48.8412 99.1887 49.5179 99.1887 50.3518Z"/>
<path d="M54.8103 90.6332C53.338 92.7822 51.8677 94.9291 50.3955 97.0781C48.8889 94.9352 47.3844 92.7922 45.8779 90.6493C47.3844 88.4781 48.8889 86.309 50.3955 84.1378C51.8677 86.3029 53.338 88.4681 54.8103 90.6332Z" fill="#AF5B37"/>
<path d="M54.8103 90.6332C53.338 92.7822 51.8677 94.9291 50.3955 97.0781C48.8889 94.9352 47.3844 92.7922 45.8779 90.6493C47.3844 88.4781 48.8889 86.309 50.3955 84.1378C51.8677 86.3029 53.338 88.4681 54.8103 90.6332Z"/>
<path d="M50.3511 99.1945C49.5173 99.1945 48.8406 99.8713 48.8406 100.705L51.8617 100.705C51.8617 99.8713 51.1849 99.1945 50.3511 99.1945Z" fill="#AF5B37"/>
<path d="M50.3511 99.1945C49.5173 99.1945 48.8406 99.8713 48.8406 100.705L51.8617 100.705C51.8617 99.8713 51.1849 99.1945 50.3511 99.1945Z"/>
<path d="M51.8585 50.3518C51.8585 49.5175 51.1822 48.8412 50.3479 48.8412C49.5137 48.8412 48.8374 49.5175 48.8374 50.3518C48.8374 51.186 49.5137 51.8623 50.3479 51.8623C51.1822 51.8623 51.8585 51.186 51.8585 50.3518Z" fill="#AF5B37"/>
<path d="M51.8585 50.3518C51.8585 49.5175 51.1822 48.8412 50.3479 48.8412C49.5137 48.8412 48.8374 49.5175 48.8374 50.3518C48.8374 51.186 49.5137 51.8623 50.3479 51.8623C51.1822 51.8623 51.8585 51.186 51.8585 50.3518Z"/>
<path d="M39.7677 62.4367C39.7677 61.6025 39.0914 60.9262 38.2571 60.9262C37.4229 60.9262 36.7466 61.6025 36.7466 62.4367C36.7466 63.271 37.4229 63.9473 38.2571 63.9473C39.0914 63.9473 39.7677 63.271 39.7677 62.4367Z" fill="#AF5B37"/>
<path d="M39.7677 62.4367C39.7677 61.6025 39.0914 60.9262 38.2571 60.9262C37.4229 60.9262 36.7466 61.6025 36.7466 62.4367C36.7466 63.271 37.4229 63.9473 38.2571 63.9473C39.0914 63.9473 39.7677 63.271 39.7677 62.4367Z"/>
<path d="M39.7677 38.2688C39.7677 37.4345 39.0914 36.7582 38.2571 36.7582C37.4229 36.7582 36.7466 37.4345 36.7466 38.2688C36.7466 39.103 37.4229 39.7793 38.2571 39.7793C39.0914 39.7793 39.7677 39.103 39.7677 38.2688Z" fill="#AF5B37"/>
<path d="M39.7677 38.2688C39.7677 37.4345 39.0914 36.7582 38.2571 36.7582C37.4229 36.7582 36.7466 37.4345 36.7466 38.2688C36.7466 39.103 37.4229 39.7793 38.2571 39.7793C39.0914 39.7793 39.7677 39.103 39.7677 38.2688Z"/>
<path d="M63.9491 38.2688C63.9491 37.4345 63.2728 36.7582 62.4385 36.7582C61.6043 36.7582 60.928 37.4345 60.928 38.2688C60.928 39.103 61.6043 39.7793 62.4385 39.7793C63.2728 39.7793 63.9491 39.103 63.9491 38.2688Z" fill="#AF5B37"/>
<path d="M63.9491 38.2688C63.9491 37.4345 63.2728 36.7582 62.4385 36.7582C61.6043 36.7582 60.928 37.4345 60.928 38.2688C60.928 39.103 61.6043 39.7793 62.4385 39.7793C63.2728 39.7793 63.9491 39.103 63.9491 38.2688Z"/>
<path d="M63.9491 62.4367C63.9491 61.6025 63.2728 60.9262 62.4385 60.9262C61.6043 60.9262 60.928 61.6025 60.928 62.4367C60.928 63.271 61.6043 63.9473 62.4385 63.9473C63.2728 63.9473 63.9491 63.271 63.9491 62.4367Z" fill="#AF5B37"/>
<path d="M63.9491 62.4367C63.9491 61.6025 63.2728 60.9262 62.4385 60.9262C61.6043 60.9262 60.928 61.6025 60.928 62.4367C60.928 63.271 61.6043 63.9473 62.4385 63.9473C63.2728 63.9473 63.9491 63.271 63.9491 62.4367Z"/>
</g>
</pattern></defs>
</svg>
