<svg width="63" height="46" viewBox="0 0 63 46" fill="none" xmlns="http://www.w3.org/2000/svg">
<path d="M0.000465888 37.7219C4.36181 43.6709 11.2034 46.6022 17.4798 45.2647C22.4805 44.1991 25.4272 40.7891 26.4867 39.3837C31.0272 33.3544 31.4318 23.6309 26.4095 18.9607C26.116 18.6858 22.1933 15.1523 17.625 16.4527C13.8073 17.5399 10.9285 21.6078 11.3517 25.5274C11.4135 26.0958 11.7996 29.0332 14.3107 30.6363C17.0227 32.366 21.1307 31.8502 23.0365 29.3174C23.9909 28.0479 24.6056 25.997 23.8334 24.0974C23.7006 23.77 22.9716 21.9754 21.0535 21.3947C19.4906 20.9221 17.7331 21.4287 16.4976 22.7074C16.6705 22.3368 17.1061 21.5491 18.0111 20.9901C19.3145 20.1839 20.6582 20.431 21.0041 20.4959C23.1261 20.8882 24.2998 22.7909 24.6921 23.424C27.3237 27.6866 24.7415 33.3853 24.4604 33.9845C21.7207 39.81 15.7532 41.5551 15.0582 41.7435C6.9502 43.9705 0.44216 38.1358 0.000465887 37.7281L0.000465888 37.7219Z" fill="#C09056"/>
<path d="M62.5606 37.7219C58.1992 43.6709 51.3576 46.6022 45.0812 45.2647C40.0805 44.1991 37.1338 40.7891 36.0744 39.3837C31.5339 33.3544 31.1292 23.6309 36.1516 18.9607C36.445 18.6858 40.3678 15.1523 44.9361 16.4527C48.7538 17.5399 51.6325 21.6078 51.2093 25.5274C51.1476 26.0958 50.7615 29.0332 48.2503 30.6363C45.5384 32.366 41.4303 31.8502 39.5245 29.3174C38.5701 28.0479 37.9554 25.997 38.7276 24.0974C38.8605 23.77 39.5894 21.9754 41.5075 21.3947C43.0705 20.9221 44.828 21.4287 46.0635 22.7074C45.8905 22.3368 45.455 21.5491 44.55 20.9901C43.2465 20.1839 41.9029 20.431 41.5569 20.4959C39.4349 20.8882 38.2612 22.7908 37.869 23.424C35.2373 27.6865 37.8195 33.3853 38.1006 33.9845C40.8403 39.8099 46.8078 41.5551 47.5028 41.7435C55.6108 43.9705 62.1189 38.1358 62.5606 37.7281L62.5606 37.7219Z" fill="#C09056"/>
<path d="M24.4536 9.88442C26.7115 6.5887 28.9663 3.29608 31.2242 0.000358672C33.5346 3.28681 35.842 6.57324 38.1524 9.85969C35.842 13.1894 33.5346 16.516 31.2242 19.8457C28.9663 16.5253 26.7115 13.2048 24.4536 9.88442Z" fill="#C09056"/>
</svg>
