<svg width="199" height="16" viewBox="0 0 199 16" fill="none" xmlns="http://www.w3.org/2000/svg">
<g opacity="0.8">
<line x1="0.5" y1="8.75638" x2="198.5" y2="8.75637" stroke="#D7BD6D" stroke-width="1.2"/>
<path d="M99.5975 15.3466C99.4167 15.3195 99.2831 15.2431 99.1942 15.1251C97.7545 13.2018 96.321 11.2724 94.8916 9.34293C94.8151 9.23942 94.7593 9.11314 94.7262 8.98892C94.6744 8.80053 94.7303 8.66597 94.9123 8.53555C96.6126 7.32447 97.6945 5.69521 98.0751 3.63741C98.1661 3.1447 98.1103 2.62093 98.0958 2.11166C98.0896 1.91499 98.1123 1.77628 98.2737 1.64172C98.6026 1.36431 98.9066 1.05999 99.221 0.768086C99.3969 0.604539 99.8126 0.600398 99.9885 0.761875C100.328 1.07655 100.671 1.38708 101.002 1.71211C101.07 1.78042 101.126 1.91085 101.114 2.00401C100.874 3.93138 101.565 5.56478 102.709 7.04913C103.176 7.6557 103.739 8.16291 104.374 8.59351C104.556 8.71772 104.554 9.03447 104.361 9.29738C104.026 9.75697 103.685 10.2145 103.346 10.6699C102.241 12.1543 101.134 13.6366 100.028 15.1188C99.9223 15.2596 99.8085 15.3962 99.5975 15.3466C99.6099 15.3279 99.5851 15.3652 99.5975 15.3466Z" fill="#CFAD57"/>
<path d="M99.6402 3.01798C99.6692 3.24984 99.6858 3.48377 99.7292 3.7115C100.021 5.29315 100.478 6.82304 101.303 8.21215C101.523 8.58272 101.471 8.83529 101.26 9.14789C100.774 9.86626 100.306 10.595 99.8285 11.3196C99.6713 11.5576 99.5451 11.5576 99.3838 11.3154C98.8687 10.537 98.3619 9.75447 97.8448 8.97814C97.6752 8.7235 97.6752 8.51441 97.8406 8.237C98.4405 7.23501 98.8584 6.15022 99.1376 5.01781C99.2886 4.41123 99.3796 3.79224 99.5017 3.17945C99.5141 3.11942 99.5513 3.06352 99.5782 3.00555C99.5989 3.00969 99.6216 3.01383 99.6423 3.01798L99.6402 3.01798Z" fill="#1D3729"/>
<path d="M104.137 8.82361C104.127 8.81675 104.12 8.81142 104.112 8.8058L104.089 8.7893C104.074 8.77836 104.06 8.76723 104.045 8.75617C104.016 8.73424 103.988 8.71159 103.96 8.68912C103.932 8.66621 103.904 8.64363 103.877 8.62054L103.796 8.55054C103.688 8.45673 103.586 8.3586 103.486 8.25888C103.286 8.0583 103.099 7.84717 102.924 7.62715C102.748 7.40713 102.585 7.1784 102.434 6.94264L102.377 6.85429C102.358 6.82471 102.341 6.79451 102.322 6.76442L102.268 6.67462L102.241 6.62963L102.215 6.58391L102.112 6.40123L102.015 6.21554C101.982 6.15413 101.953 6.09062 101.922 6.02801C101.892 5.96504 101.86 5.90297 101.833 5.83863L101.748 5.64766C101.721 5.58356 101.696 5.51864 101.669 5.45426L101.63 5.35755L101.594 5.25945L101.522 5.06367L101.457 4.86568L101.424 4.76676C101.414 4.73367 101.405 4.70018 101.395 4.6668C101.237 4.1344 101.124 3.5905 101.055 3.04219C101.155 3.58559 101.299 4.11959 101.486 4.63654C101.498 4.66884 101.509 4.7015 101.521 4.73343L101.559 4.8292L101.634 5.02081L101.716 5.20955L101.757 5.30383L101.801 5.39674C101.831 5.45847 101.86 5.52075 101.89 5.58212L101.984 5.76467C102.014 5.82579 102.049 5.88513 102.082 5.94479C102.115 6.00435 102.148 6.06463 102.183 6.12292L102.289 6.29855L102.399 6.47069L102.427 6.51365L102.456 6.55588L102.513 6.64034C102.533 6.66829 102.552 6.6966 102.571 6.72455L102.631 6.80697C102.792 7.02703 102.962 7.23911 103.143 7.44128C103.324 7.64313 103.516 7.83506 103.716 8.01472C103.817 8.10411 103.919 8.19125 104.025 8.27324L104.104 8.33391L104.185 8.39288C104.212 8.41172 104.239 8.43106 104.265 8.44898C104.279 8.45814 104.292 8.46723 104.306 8.47574L104.325 8.48833L104.343 8.49925L104.345 8.50027C104.435 8.55606 104.463 8.67411 104.407 8.76443C104.352 8.85482 104.234 8.88276 104.143 8.82697C104.141 8.82587 104.139 8.82405 104.137 8.82295L104.137 8.82361Z" fill="#BB9037"/>
<path d="M95.0408 8.82361C95.0512 8.81675 95.0582 8.81142 95.0662 8.8058L95.089 8.7893C95.104 8.77836 95.1187 8.76723 95.1332 8.75617C95.1624 8.73424 95.1903 8.71159 95.2185 8.68912C95.2463 8.66621 95.274 8.64363 95.3015 8.62054L95.3827 8.55054C95.4901 8.45673 95.5924 8.3586 95.6926 8.25888C95.8921 8.0583 96.0794 7.84717 96.2546 7.62715C96.4298 7.40713 96.5931 7.1784 96.7444 6.94264L96.8013 6.85429C96.8198 6.82471 96.8375 6.79451 96.8559 6.76442L96.9102 6.67462L96.9372 6.62963L96.9628 6.58391L97.0658 6.40123L97.163 6.21554C97.1963 6.15413 97.2254 6.09062 97.2561 6.02801C97.2862 5.96504 97.3179 5.90297 97.3451 5.83863L97.43 5.64766C97.4573 5.58356 97.4827 5.51864 97.509 5.45426L97.5481 5.35754L97.5843 5.25945L97.6563 5.06367L97.7216 4.86568L97.754 4.76676C97.7646 4.73367 97.7736 4.70018 97.7833 4.6668C97.9415 4.1344 98.0546 3.5905 98.1237 3.04219C98.0229 3.58559 97.8792 4.11959 97.6923 4.63654C97.6806 4.66884 97.6696 4.7015 97.6574 4.73343L97.6197 4.8292L97.544 5.02081L97.462 5.20955L97.4208 5.30383L97.3768 5.39674C97.3472 5.45847 97.3186 5.52075 97.2883 5.58212L97.1944 5.76467C97.164 5.82579 97.1293 5.88513 97.0964 5.94479C97.0629 6.00435 97.0306 6.06463 96.9948 6.12292L96.8895 6.29855L96.779 6.47069L96.7515 6.51365L96.7226 6.55588L96.6648 6.64034C96.6453 6.66829 96.6265 6.6966 96.607 6.72455L96.5467 6.80697C96.3867 7.02703 96.2161 7.23911 96.035 7.44128C95.8541 7.64313 95.6626 7.83506 95.462 8.01472C95.3613 8.10411 95.2589 8.19125 95.1533 8.27324L95.0738 8.33391L94.9936 8.39288C94.9665 8.41172 94.9396 8.43106 94.9128 8.44898C94.8992 8.45814 94.8858 8.46723 94.8726 8.47574L94.8528 8.48833L94.835 8.49925L94.8334 8.50027C94.7431 8.55606 94.7151 8.67411 94.7709 8.76443C94.8264 8.85482 94.9446 8.88276 95.0348 8.82697C95.0367 8.82587 95.0392 8.82405 95.0411 8.82295L95.0408 8.82361Z" fill="#BB9037"/>
<path d="M100.812 2.20038C100.786 2.33289 100.771 2.46676 100.761 2.60074C100.751 2.73472 100.747 2.86858 100.749 3.00238C100.752 3.13613 100.758 3.26989 100.772 3.40253C100.776 3.43552 100.778 3.46918 100.783 3.50214L100.795 3.60147C100.805 3.66735 100.815 3.73345 100.828 3.79901C100.852 3.93041 100.882 4.06063 100.917 4.18961C100.933 4.25445 100.953 4.31817 100.973 4.3823C100.982 4.41447 100.994 4.44559 101.004 4.47753C101.015 4.50908 101.025 4.54143 101.037 4.57273C101.128 4.82486 101.237 5.07046 101.36 5.31149C101.204 5.09003 101.075 4.84972 100.97 4.59883C100.917 4.47328 100.872 4.3444 100.833 4.2139C100.813 4.14888 100.797 4.08252 100.78 4.01659C100.772 3.98359 100.765 3.94998 100.758 3.91677L100.747 3.86666L100.738 3.81648C100.689 3.54829 100.668 3.27441 100.678 3.00224C100.682 2.86608 100.696 2.73044 100.717 2.59611C100.74 2.46226 100.767 2.32875 100.813 2.20091L100.812 2.20038Z" fill="#BB9037"/>
<path d="M98.3657 2.20038C98.392 2.33289 98.4072 2.46676 98.4173 2.60074C98.4273 2.73472 98.4308 2.86858 98.4293 3.00238C98.4266 3.13613 98.4203 3.26989 98.4063 3.40253C98.4023 3.43552 98.4003 3.46918 98.3955 3.50214L98.383 3.60147C98.3728 3.66735 98.363 3.73345 98.3499 3.79901C98.3258 3.93041 98.2967 4.06063 98.2611 4.18961C98.2449 4.25445 98.2248 4.31817 98.2054 4.3823C98.196 4.41447 98.1842 4.44559 98.1738 4.47753C98.1631 4.50908 98.1535 4.54143 98.1415 4.57273C98.0507 4.82486 97.9411 5.07046 97.8184 5.31149C97.9739 5.09004 98.1037 4.84972 98.2085 4.59883C98.2608 4.47328 98.3061 4.3444 98.345 4.2139C98.3653 4.14888 98.3813 4.08252 98.3983 4.01659C98.4063 3.9836 98.4129 3.94998 98.4203 3.91677L98.431 3.86666L98.4402 3.81648C98.4896 3.54829 98.5102 3.27441 98.5003 3.00224C98.4958 2.86608 98.4824 2.73044 98.4614 2.59611C98.4386 2.46226 98.4111 2.32875 98.3651 2.20091L98.3657 2.20038Z" fill="#BB9037"/>
<path d="M101.299 11.8962C101.383 11.8059 101.466 11.7151 101.547 11.6227C101.588 11.5767 101.628 11.5302 101.668 11.484L101.788 11.3439C101.827 11.2965 101.865 11.2491 101.905 11.2021L102.02 11.0587C102.059 11.0113 102.096 10.9622 102.133 10.9138L102.19 10.8413L102.244 10.7673C102.392 10.5721 102.531 10.3695 102.664 10.1637L102.763 10.0083L102.857 9.84995L102.904 9.77095L102.949 9.69011C102.979 9.63629 103.009 9.58243 103.04 9.52905C103.016 9.58605 102.992 9.64309 102.968 9.69965C102.956 9.72804 102.944 9.75647 102.931 9.78464L102.89 9.86784C102.863 9.92308 102.835 9.9783 102.807 10.0333L102.716 10.1947C102.7 10.2215 102.686 10.2488 102.669 10.2752L102.62 10.3538L102.571 10.4324C102.554 10.4585 102.538 10.4849 102.52 10.5103L102.415 10.663C102.398 10.6886 102.379 10.7136 102.361 10.7382L102.306 10.8131L102.25 10.8872L102.193 10.9598L102.135 11.0325L102.106 11.0689C102.097 11.0809 102.086 11.0927 102.076 11.1044L101.956 11.2456C101.915 11.2919 101.874 11.3379 101.833 11.3834C101.79 11.4282 101.748 11.4735 101.705 11.5181C101.662 11.5617 101.619 11.606 101.574 11.6488C101.485 11.7342 101.395 11.8184 101.299 11.8964L101.299 11.8962Z" fill="#BB9037"/>
<path d="M99.1263 13.1008C99.0404 13.0123 98.9556 12.9234 98.8725 12.8327C98.8305 12.7876 98.7897 12.742 98.7483 12.6966L98.6259 12.5591C98.5859 12.5125 98.5462 12.466 98.5056 12.4199L98.3875 12.2789C98.3477 12.2324 98.3099 12.1841 98.271 12.1365L98.2132 12.0652L98.1571 11.9923C98.0048 11.8004 97.862 11.6008 97.7244 11.3979L97.6225 11.2447L97.5252 11.0883L97.4758 11.0103L97.4296 10.9305C97.3988 10.8773 97.3674 10.8241 97.3355 10.7714C97.36 10.8279 97.3851 10.8844 97.4107 10.9404C97.4233 10.9685 97.4363 10.9967 97.4494 11.0246L97.492 11.1069C97.5209 11.1615 97.5495 11.2162 97.5789 11.2706L97.6736 11.4299C97.6897 11.4564 97.7047 11.4834 97.7216 11.5094L97.7727 11.587L97.8238 11.6645C97.841 11.6903 97.8576 11.7163 97.8757 11.7413L97.9842 11.8917C98.0019 11.917 98.0211 11.9416 98.0397 11.9658L98.0963 12.0395L98.1535 12.1123L98.2126 12.1837L98.2718 12.2552L98.3013 12.291C98.3114 12.3028 98.3218 12.3143 98.332 12.3258L98.455 12.4645C98.497 12.5098 98.5392 12.555 98.5817 12.5996C98.6251 12.6435 98.6682 12.6879 98.7118 12.7315C98.7566 12.7741 98.8006 12.8175 98.8456 12.8594C98.9364 12.9429 99.0288 13.0251 99.1261 13.1011L99.1263 13.1008Z" fill="#BB9037"/>
<path d="M99.5267 12.7115C99.6571 12.5713 99.7858 12.4304 99.9118 12.2869C99.9754 12.2155 100.037 12.1434 100.1 12.0717L100.285 11.8542C100.346 11.7806 100.406 11.707 100.468 11.6341L100.646 11.4115C100.706 11.3379 100.763 11.2617 100.822 11.1865L100.91 11.0739L100.994 10.9591C101.224 10.6561 101.439 10.3417 101.646 10.0221L101.799 9.78099L101.945 9.5351L102.019 9.41247L102.088 9.28697C102.134 9.20343 102.181 9.11982 102.229 9.03697C102.193 9.12544 102.156 9.21399 102.118 9.30179C102.099 9.34586 102.08 9.38999 102.061 9.43372L101.997 9.56287C101.954 9.64862 101.912 9.73434 101.868 9.81976L101.726 10.0702C101.702 10.1119 101.68 10.1542 101.654 10.1952L101.577 10.3172L101.501 10.4392C101.475 10.4798 101.45 10.5207 101.423 10.5601L101.259 10.7972C101.233 10.837 101.204 10.8757 101.176 10.914L101.09 11.0302L101.004 11.1452L100.914 11.258L100.825 11.3707L100.78 11.4273C100.765 11.446 100.749 11.4642 100.734 11.4824L100.547 11.7016C100.484 11.7735 100.42 11.8449 100.355 11.9156C100.289 11.9851 100.224 12.0554 100.158 12.1246C100.09 12.1922 100.023 12.261 99.9544 12.3275C99.8163 12.46 99.6756 12.5908 99.5272 12.7119L99.5267 12.7115Z" fill="#BB9037"/>
<path d="M99.5858 12.7115C99.4554 12.5713 99.3268 12.4304 99.2008 12.2869C99.1371 12.2155 99.0752 12.1434 99.0124 12.0717L98.8271 11.8542C98.7666 11.7806 98.7064 11.707 98.645 11.6341L98.4663 11.4115C98.4061 11.3379 98.3491 11.2617 98.2903 11.1865L98.2029 11.0739L98.1182 10.9591C97.8882 10.6561 97.6732 10.3417 97.4665 10.0221L97.3133 9.78099L97.1675 9.5351L97.0933 9.41247L97.0244 9.28697C96.9783 9.20343 96.9313 9.11982 96.8835 9.03697C96.9197 9.12544 96.9568 9.21399 96.9947 9.30179C97.0132 9.34586 97.0326 9.38999 97.052 9.43372L97.1153 9.56287C97.1583 9.64862 97.201 9.73434 97.2449 9.81976L97.3865 10.0702C97.4106 10.1119 97.433 10.1542 97.4584 10.1952L97.5351 10.3172L97.6118 10.4392C97.6376 10.4798 97.6626 10.5207 97.6898 10.5601L97.8532 10.7972C97.88 10.837 97.9088 10.8757 97.9369 10.914L98.0224 11.0302L98.1087 11.1452L98.1981 11.258L98.2875 11.3707L98.3322 11.4273C98.3475 11.446 98.3633 11.4642 98.3787 11.4824L98.5651 11.7016C98.6287 11.7735 98.6927 11.8449 98.7572 11.9156C98.8231 11.9851 98.8885 12.0554 98.9548 12.1246C99.0229 12.1922 99.0896 12.261 99.1582 12.3275C99.2962 12.46 99.4369 12.5908 99.5854 12.7119L99.5858 12.7115Z" fill="#BB9037"/>
</g>
</svg>
