<svg width="81" height="81" viewBox="0 0 81 81" fill="none" xmlns="http://www.w3.org/2000/svg">
<path d="M40.0888 79.6999C39.9285 57.8848 22.302 40.222 0.500148 40.0028L0.500148 39.9938C22.1755 39.7765 39.724 22.3208 40.0854 0.681073L40.0981 0.681073C40.4604 22.3854 58.1066 39.8805 79.8745 39.9952L79.8745 40.0017C57.9828 40.1171 40.2546 57.8196 40.094 79.6999L40.0888 79.6999Z" fill="#F4CE9F"/>
<path d="M80.0898 39.9962C80.018 39.9962 79.9463 39.9956 79.8745 39.9952M79.8745 39.9952C58.1066 39.8805 40.4604 22.3854 40.0981 0.681073M79.8745 39.9952L79.8745 40.0017M40.0981 0.681073C40.0943 0.454501 40.0919 0.227478 40.0919 4.13266e-06C40.0919 0.22748 40.0892 0.454499 40.0854 0.681073M40.0981 0.681073L40.0854 0.681073M40.0854 0.681073C39.724 22.3208 22.1755 39.7765 0.500148 39.9938M0.500148 39.9938C0.363884 39.9952 0.227457 39.9962 0.0908696 39.9962M0.500148 39.9938L0.500148 40.0028M40.0888 79.6999C39.9285 57.8848 22.302 40.222 0.500148 40.0028M40.0888 79.6999L40.094 79.6999M40.0888 79.6999C40.0895 79.7999 40.0909 79.8999 40.0909 80M0.500148 40.0028C0.36354 40.0014 0.226773 40 0.0898396 40M79.8745 40.0017C57.9828 40.1171 40.2546 57.8196 40.094 79.6999M79.8745 40.0017C79.9463 40.0013 80.018 40 80.0898 40M40.094 79.6999C40.0932 79.7998 40.0919 79.8997 40.0919 79.9997" stroke="black" stroke-miterlimit="10"/>
</svg>
