<svg width="80" height="80" viewBox="0 0 80 80" fill="none" xmlns="http://www.w3.org/2000/svg">
<path d="M39.999 79.6999C39.8387 57.8848 22.2122 40.222 0.410305 40.0028L0.410305 39.9938C22.0856 39.7765 39.6342 22.3208 39.9955 0.681073L40.0083 0.681073C40.3706 22.3854 58.0167 39.8805 79.7847 39.9952L79.7847 40.0017C57.8929 40.1171 40.1648 57.8196 40.0041 79.6999L39.999 79.6999Z" fill="#F4CE9F"/>
<path d="M55.038 66.069C54.9862 59.016 49.2874 53.3054 42.2387 53.2346L42.2387 53.2317C49.2465 53.1614 54.9201 47.5179 55.0369 40.5216L55.041 40.5216C55.1582 47.5387 60.8633 53.195 67.9011 53.2321L67.9011 53.2342C60.8233 53.2716 55.0916 58.9949 55.0397 66.069L55.038 66.069Z" fill="#3A2010"/>
<path d="M27.9697 41.4079C27.9178 34.3548 22.2191 28.6443 15.1703 28.5734L15.1703 28.5705C22.1782 28.5003 27.8517 22.8567 27.9686 15.8604L27.9727 15.8604C28.0898 22.8776 33.795 28.5339 40.8327 28.571L40.8327 28.5731C33.7549 28.6104 28.0233 34.3338 27.9713 41.4079L27.9697 41.4079Z" fill="#3A2010"/>
</svg>
