<svg width="45" height="45" viewBox="0 0 45 45" fill="none" xmlns="http://www.w3.org/2000/svg">
<path d="M19.5003 24.7735C20.6876 25.9409 17.3879 31.6187 13.9146 35.4389C9.28304 40.5331 3.73165 42.9058 -1.90735e-06 44.0732C1.38965 40.2693 4.00452 34.9022 9.10233 30.3339C12.7183 27.0938 18.3113 23.6043 19.5022 24.7753L19.5003 24.7735Z" fill="#C09056"/>
<path d="M19.447 19.5004C18.2796 20.6876 12.6017 17.3879 8.78153 13.9146C3.68733 9.28304 1.31461 3.73165 0.147232 -1.64528e-06C3.95117 1.38965 9.31824 4.00452 13.8866 9.10233C17.1267 12.7183 20.6162 18.3113 19.4452 19.5022L19.447 19.5004Z" fill="#C09056"/>
<path d="M24.8444 19.5154C23.6571 18.348 26.9568 12.6701 30.4301 8.84994C35.0616 3.75574 40.613 1.38302 44.3447 0.215637C42.955 4.01957 40.3402 9.38665 35.2424 13.955C31.6264 17.1951 26.0334 20.6846 24.8425 19.5136L24.8444 19.5154Z" fill="#C09056"/>
<path d="M24.7774 24.7877C25.9447 23.6004 31.6226 26.9002 35.4428 30.3734C40.537 35.005 42.9097 40.5564 44.0771 44.2881C40.2732 42.8984 34.9061 40.2836 30.3378 35.1857C27.0977 31.5697 23.6082 25.9768 24.7792 24.7859L24.7774 24.7877Z" fill="#C09056"/>
</svg>
