<svg width="26" height="26" viewBox="0 0 26 26" fill="none" xmlns="http://www.w3.org/2000/svg">
<g clip-path="url(#clip0_6402_479)">
<path d="M7.61417 0.176758H18.3856C22.489 0.176758 25.823 3.51077 25.823 7.61417V18.3856C25.823 20.3581 25.0394 22.2499 23.6446 23.6446C22.2499 25.0394 20.3581 25.823 18.3856 25.823H7.61417C3.51077 25.823 0.176758 22.489 0.176758 18.3856V7.61417C0.176758 5.64165 0.960341 3.74991 2.35513 2.35513C3.74991 0.960341 5.64165 0.176758 7.61417 0.176758ZM7.35771 2.74138C6.13338 2.74138 4.9592 3.22775 4.09347 4.09347C3.22775 4.9592 2.74138 6.13338 2.74138 7.35771V18.6421C2.74138 21.1939 4.80591 23.2584 7.35771 23.2584H18.6421C19.8664 23.2584 21.0406 22.772 21.9063 21.9063C22.772 21.0406 23.2584 19.8664 23.2584 18.6421V7.35771C23.2584 4.80591 21.1939 2.74138 18.6421 2.74138H7.35771ZM19.732 4.66485C20.1571 4.66485 20.5648 4.83373 20.8654 5.13433C21.166 5.43493 21.3349 5.84263 21.3349 6.26774C21.3349 6.69286 21.166 7.10056 20.8654 7.40116C20.5648 7.70176 20.1571 7.87064 19.732 7.87064C19.3069 7.87064 18.8992 7.70176 18.5986 7.40116C18.298 7.10056 18.1291 6.69286 18.1291 6.26774C18.1291 5.84263 18.298 5.43493 18.5986 5.13433C18.8992 4.83373 19.3069 4.66485 19.732 4.66485ZM12.9999 6.58832C14.7003 6.58832 16.3311 7.26382 17.5335 8.46623C18.736 9.66863 19.4115 11.2994 19.4115 12.9999C19.4115 14.7003 18.736 16.3311 17.5335 17.5335C16.3311 18.736 14.7003 19.4115 12.9999 19.4115C11.2994 19.4115 9.66863 18.736 8.46623 17.5335C7.26382 16.3311 6.58832 14.7003 6.58832 12.9999C6.58832 11.2994 7.26382 9.66863 8.46623 8.46623C9.66863 7.26382 11.2994 6.58832 12.9999 6.58832ZM12.9999 9.15295C11.9796 9.15295 11.0011 9.55825 10.2797 10.2797C9.55825 11.0011 9.15295 11.9796 9.15295 12.9999C9.15295 14.0202 9.55825 14.9986 10.2797 15.7201C11.0011 16.4415 11.9796 16.8468 12.9999 16.8468C14.0202 16.8468 14.9986 16.4415 15.7201 15.7201C16.4415 14.9986 16.8468 14.0202 16.8468 12.9999C16.8468 11.9796 16.4415 11.0011 15.7201 10.2797C14.9986 9.55825 14.0202 9.15295 12.9999 9.15295Z" fill="#FFF9ED"/>
</g>
<defs>
<clipPath id="clip0_6402_479">
<rect width="26" height="26" fill="white"/>
</clipPath>
</defs>
</svg>
