<svg width="133" height="133" viewBox="0 0 133 133" fill="none" xmlns="http://www.w3.org/2000/svg">
<path d="M66.4983 132.501C66.2318 96.2334 36.9278 66.869 0.682135 66.5046L0.682135 66.4897C36.7174 66.1285 65.8918 37.1084 66.4926 1.13229L66.5138 1.13229C67.1161 37.2157 96.4528 66.3013 132.642 66.492L132.642 66.5029C96.247 66.6947 66.774 96.1251 66.5069 132.501L66.4983 132.501Z" fill="#F4CE9F"/>
<path d="M91.4994 109.839C91.4133 98.1131 81.939 88.6193 70.2205 88.5015L70.2205 88.4967C81.871 88.3799 91.3034 78.9974 91.4976 67.3661L91.5044 67.3661C91.6992 79.0321 101.184 88.4358 112.884 88.4974L112.884 88.5009C101.117 88.563 91.5886 98.0781 91.5022 109.839L91.4994 109.839Z" fill="#3A2010"/>
<path d="M46.4994 68.8387C46.4133 57.1131 36.939 47.6193 25.2205 47.5015L25.2205 47.4967C36.871 47.3799 46.3034 37.9974 46.4976 26.3661L46.5044 26.3661C46.6992 38.0321 56.184 47.4358 67.8843 47.4974L67.8843 47.5009C56.1174 47.563 46.5886 57.0781 46.5022 68.8387L46.4994 68.8387Z" fill="#3A2010"/>
</svg>
