<svg width="18" height="18" viewBox="0 0 18 18" fill="none" xmlns="http://www.w3.org/2000/svg">
<path d="M12.375 11.25C11.4799 11.25 10.6215 11.6056 9.98852 12.2385C9.35558 12.8715 9 13.7299 9 14.625C9 12.7613 7.6575 11.25 6 11.25M12.375 8.25C11.4799 8.25 10.6215 8.60558 9.98852 9.23851C9.35558 9.87145 9 10.7299 9 11.625C9 9.76125 7.6575 8.25 6 8.25M12.375 5.25C11.4799 5.25 10.6215 5.60558 9.98852 6.23851C9.35558 6.87145 9 7.72989 9 8.625C9 6.76125 7.6575 5.25 6 5.25M9 3V7.5" stroke="#7B361C" stroke-linecap="round" stroke-linejoin="round"/>
</svg>
