<svg width="198" height="192" viewBox="0 0 198 192" fill="none" xmlns="http://www.w3.org/2000/svg">
<rect x="0.5" y="0.5" width="197" height="191" rx="19.5" stroke="white"/>
<path d="M71.9854 131.828C71.9854 132.786 72.3937 133.076 73.0649 133.076C73.269 133.076 73.5319 133.048 73.8239 132.989C74.0571 132.96 74.174 133.454 73.9699 133.541L70.1178 135.138C69.7968 135.283 69.4176 135.08 69.4176 134.615L69.3879 132.641C68.6004 133.744 67.0829 135.225 65.0112 135.225C62.6766 135.225 61.0132 133.367 61.0132 129.592C61.0132 124.802 63.6398 121.608 67.55 121.608C68.1915 121.608 68.7755 121.724 69.3879 121.811V117.92C69.3879 116.933 68.9796 116.672 68.2793 116.672C68.0752 116.672 67.8123 116.701 67.55 116.73C67.3162 116.759 67.1998 116.265 67.404 116.178L71.2561 114.581C71.5765 114.436 71.9563 114.639 71.9563 115.133L71.9854 127.56V131.828ZM66.2658 133.657C67.3749 133.657 68.6586 132.815 69.3879 131.335V124.656C69.3879 123.292 69.0378 122.276 67.5791 122.276C65.1863 122.276 63.6101 124.831 63.6101 128.78C63.6101 132.06 64.6902 133.657 66.2658 133.657Z" fill="#FEF8EC"/>
<path d="M74.9014 123.756C74.6682 123.756 74.435 123.785 74.1721 123.814C73.9389 123.843 73.822 123.379 74.0261 123.292L77.8782 121.666C78.1992 121.549 78.5784 121.723 78.5784 122.217L78.6075 133.134C78.6075 134.441 80.0086 134.267 80.8252 134.47C80.9421 134.528 80.9421 134.906 80.8252 134.906H74.0552C73.9389 134.906 73.9389 134.528 74.0552 134.47C74.8724 134.267 76.0397 134.441 76.0397 133.134L76.0106 125.005C76.0106 124.017 75.5726 123.756 74.9014 123.756ZM77.1488 114.581C78.141 114.581 78.8122 115.394 78.8122 116.585C78.8122 117.775 78.141 118.588 77.1488 118.588C76.1566 118.588 75.4854 117.775 75.4854 116.585C75.4854 115.394 76.1566 114.581 77.1488 114.581Z" fill="#FEF8EC"/>
<path d="M93.3474 133.134C93.3474 134.441 94.7479 134.267 95.5651 134.47C95.682 134.528 95.682 134.906 95.5651 134.906H88.7951C88.6782 134.906 88.6782 134.528 88.7951 134.47C89.6123 134.267 90.7795 134.441 90.7795 133.134L90.7505 117.92C90.7505 116.933 90.3416 116.672 89.6413 116.672C89.4372 116.672 89.1743 116.701 88.912 116.73C88.6782 116.759 88.5618 116.265 88.766 116.178L92.618 114.581C92.9391 114.436 93.3183 114.639 93.3183 115.133L93.3474 133.134Z" fill="#FEF8EC"/>
<path d="M104.172 132.495C103.384 133.918 101.925 135.196 99.9703 135.196C97.8108 135.196 96.5266 133.628 96.5266 131.276V125.005C96.5266 124.017 96.0892 123.756 95.418 123.756C95.1842 123.756 94.9509 123.785 94.6881 123.814C94.4548 123.843 94.3379 123.379 94.5426 123.291L98.3941 121.666C98.7152 121.549 99.095 121.723 99.095 122.217L99.124 131.625C99.124 132.902 99.9412 133.628 101.05 133.628C102.246 133.628 103.472 132.786 104.172 131.334V125.005C104.172 124.017 103.735 123.756 103.063 123.756C102.83 123.756 102.596 123.785 102.334 123.814C102.071 123.843 101.984 123.379 102.188 123.291L106.04 121.666C106.361 121.549 106.74 121.723 106.74 122.217V131.799C106.74 132.786 107.178 133.047 107.849 133.047C108.083 133.047 108.316 133.018 108.579 132.989C108.812 132.96 108.929 133.425 108.724 133.512L104.873 135.138C104.552 135.254 104.172 135.079 104.172 134.586V132.495Z" fill="#FEF8EC"/>
<path d="M122.791 134.47C122.908 134.528 122.937 134.906 122.791 134.906H116.021C115.904 134.906 115.904 134.528 116.021 134.47C116.838 134.267 118.005 134.441 118.005 133.134V125.179C118.005 123.901 117.188 123.175 116.079 123.175C114.883 123.175 113.628 124.017 112.957 125.469V133.134C112.957 134.441 114.357 134.267 115.174 134.47C115.291 134.528 115.291 134.906 115.174 134.906H108.404C108.288 134.906 108.288 134.528 108.404 134.47C109.221 134.267 110.389 134.441 110.389 133.134L110.36 125.033C110.36 124.046 109.922 123.785 109.251 123.785C109.017 123.785 108.784 123.814 108.521 123.843C108.288 123.901 108.171 123.407 108.375 123.32L112.227 121.694C112.548 121.578 112.928 121.753 112.928 122.246V124.279C113.716 122.885 115.174 121.607 117.13 121.607C119.289 121.607 120.573 123.175 120.573 125.527V133.134C120.573 134.441 121.973 134.267 122.791 134.47Z" fill="#FEF8EC"/>
<path d="M125.447 125.963C124.776 125.963 124.309 125.44 124.309 124.54C124.309 122.159 127.694 121.607 129.27 121.607C131.079 121.607 134.085 122.362 134.085 125.556V133.105C134.085 133.541 134.202 133.976 134.581 133.976C135.019 133.976 135.631 133.482 136.04 132.96L136.186 133.221C135.223 134.76 134.552 135.195 133.618 135.195C132.567 135.195 131.488 134.673 131.488 133.018V131.015C130.583 133.366 128.92 135.254 126.235 135.254C124.28 135.254 123.2 134.063 123.2 132.466C123.2 129.737 126.206 129.011 128.54 128.314C129.97 127.908 131.021 127.298 131.488 126.572L131.517 125.701C131.517 123.524 130.583 122.333 129.036 122.333C126.322 122.333 127.285 125.963 125.447 125.963ZM131.488 127.502C130.787 128.082 129.678 128.634 128.511 129.04C126.643 129.679 125.797 130.695 125.797 131.944C125.797 133.192 126.614 133.802 127.548 133.802C129.416 133.802 131.05 131.334 131.488 129.215V127.502Z" fill="#FEF8EC"/>
<path d="M44.9531 145.931C44.9257 146.529 45.1519 146.645 45.4273 146.911C45.4674 146.95 45.3726 147.109 45.3269 147.084L42.6587 145.536C42.6131 145.509 42.7061 145.349 42.759 145.364C43.1274 145.471 43.8223 145.888 43.8496 145.291L43.981 142.331C44.0102 141.52 43.7694 141.088 43.3317 140.836L42.9633 140.622L41.1467 143.723C40.8458 144.239 41.3456 144.436 41.6209 144.703C41.6592 144.741 41.5662 144.901 41.5206 144.875L38.9326 143.375C38.887 143.348 38.98 143.188 39.0329 143.202C39.4014 143.309 39.8226 143.645 40.1235 143.13L43.9992 136.515C44.3001 136 43.8004 135.802 43.525 135.535C43.4849 135.497 43.5797 135.338 43.6253 135.363L47.2255 137.45C48.7904 138.357 49.4014 139.707 48.65 140.99C48.0189 142.066 46.806 142.482 45.161 141.818L44.9549 145.93L44.9531 145.931ZM44.9129 137.292L43.1292 140.337L44.4406 141.098C45.6716 141.81 46.8827 141.609 47.6067 140.373C48.2779 139.228 47.9167 138.239 46.4687 137.397C45.5495 136.863 45.1209 136.936 44.9129 137.292Z" fill="#FEF8EC"/>
<path d="M50.4918 142.75C51.4273 143.198 52.2061 144.247 51.5477 145.608L48.1281 143.973C47.9876 144.171 47.8545 144.387 47.745 144.614C47.0867 145.975 47.3401 147.256 48.3724 147.752C49.1275 148.113 49.9884 147.893 50.5975 147.272L50.7544 147.347C49.7896 148.457 48.5184 148.733 47.4861 148.24C46.2148 147.631 45.8391 146.144 46.6179 144.532C47.4715 142.765 49.1348 142.106 50.4918 142.754V142.75ZM50.6194 144.781C51.0298 143.933 50.8219 143.291 50.2473 143.015C49.5999 142.705 48.8959 143.061 48.3524 143.696L50.6212 144.781H50.6194Z" fill="#FEF8EC"/>
<path d="M54.4425 144.583C55.1939 144.89 55.4036 145.361 55.6371 145.456C55.7483 145.501 55.9143 145.483 56.02 145.226L56.3153 145.345L55.5185 147.281L55.2851 147.185C55.6352 146.196 55.2267 145.229 54.5118 144.939C54.0193 144.737 53.5014 144.913 53.3044 145.39C52.7591 146.715 55.7848 147.646 54.9933 149.572C54.5793 150.577 53.5543 150.831 52.5311 150.415C51.756 150.1 51.435 149.583 51.1651 149.472C51.0301 149.417 50.8641 149.436 50.7583 149.693L50.4629 149.573L51.3109 147.514L51.5444 147.61C51.207 148.604 51.7049 149.737 52.5056 150.064C53.06 150.29 53.6765 150.084 53.9136 149.506C54.5245 148.024 51.4185 147.216 52.1755 145.376C52.5384 144.494 53.4466 144.177 54.4443 144.583H54.4425Z" fill="#FEF8EC"/>
<path d="M58.4585 146.194L59.8412 146.677L59.7226 147.002L58.34 146.519L56.8992 150.481C56.7588 150.867 56.8169 151.212 57.1799 151.343C57.5178 151.464 57.8769 151.298 58.2197 150.744L58.4205 150.817C57.8987 151.784 57.0759 152.136 56.4125 151.898C55.7867 151.673 55.4639 150.965 55.7575 150.154L57.2292 146.106L56.478 145.835L56.5966 145.512C57.4848 145.831 58.1705 145.543 59.1281 143.38L59.4418 143.492L58.4585 146.196V146.194Z" fill="#FEF8EC"/>
<path d="M60.4504 148.84C60.1567 148.751 60.0236 148.461 60.1456 148.067C60.4666 147.029 62.0171 147.24 62.7045 147.45C63.4942 147.692 64.7035 148.421 64.2728 149.815L63.2571 153.107C63.1989 153.297 63.1916 153.502 63.3555 153.553C63.5474 153.611 63.8807 153.478 64.129 153.304L64.1581 153.439C63.5306 153.981 63.1788 154.081 62.7721 153.957C62.314 153.818 61.913 153.446 62.1356 152.724L62.4052 151.85C61.6943 152.756 60.7149 153.357 59.5437 153C58.6919 152.738 58.3803 152.076 58.5957 151.379C58.9637 150.189 60.3721 150.272 61.4846 150.279C62.163 150.292 62.7028 150.166 63.0037 149.913L63.1329 149.537C63.4265 148.588 63.1788 147.944 62.5059 147.737C61.3224 147.375 61.253 149.087 60.4521 148.842L60.4504 148.84ZM62.8778 150.317C62.4947 150.477 61.9365 150.569 61.3733 150.592C60.4722 150.621 59.9671 150.951 59.7993 151.495C59.6315 152.04 59.9051 152.415 60.3117 152.538C61.1272 152.787 62.172 151.929 62.648 151.063L62.8778 150.316V150.317Z" fill="#FEF8EC"/>
<path d="M68.312 154.129C67.8052 154.674 67.0188 155.079 66.1525 154.865C65.1971 154.629 64.8011 153.792 65.0618 152.752L65.757 149.976C65.8661 149.539 65.7022 149.375 65.4046 149.3C65.3012 149.275 65.1949 149.263 65.0746 149.246C64.9689 149.234 64.9672 149.016 65.0674 148.999L66.9534 148.702C67.1083 148.686 67.2577 148.804 67.2034 149.023L66.1743 153.191C66.0322 153.758 66.3152 154.168 66.8057 154.289C67.3343 154.42 67.9708 154.182 68.4418 153.616L69.142 150.813C69.2511 150.375 69.0872 150.211 68.7897 150.137C68.6862 150.112 68.5799 150.099 68.4597 150.083C68.3394 150.066 68.3523 149.853 68.4524 149.836L70.3384 149.539C70.4933 149.522 70.6427 149.64 70.5884 149.86L69.5268 154.102C69.4172 154.54 69.5817 154.703 69.8787 154.777C69.9827 154.803 70.0884 154.816 70.2087 154.832C70.3144 154.845 70.3166 155.062 70.2159 155.079L68.3304 155.376C68.1755 155.393 68.0256 155.275 68.0804 155.055L68.312 154.129Z" fill="#FEF8EC"/>
<path d="M71.9458 151.443C72.0347 151.002 71.8635 150.846 71.5643 150.784C71.4603 150.763 71.3529 150.755 71.2326 150.744C71.1247 150.737 71.1157 150.517 71.2142 150.498L73.0857 150.118C73.2383 150.095 73.3938 150.207 73.348 150.429L73.1656 151.325C73.6528 150.733 74.3055 150.34 74.9057 150.459C75.7536 150.632 75.531 151.654 74.9437 151.536C74.7211 151.49 74.6227 151.309 74.324 151.247C73.9319 151.167 73.4593 151.356 73.0801 151.821L72.3669 155.312C72.2483 155.896 72.8904 155.945 73.2367 156.11C73.2842 156.147 73.2495 156.316 73.1964 156.305L70.1693 155.693C70.1162 155.682 70.1509 155.513 70.2091 155.499C70.5922 155.483 71.0995 155.666 71.2175 155.081L71.9474 151.445L71.9458 151.443Z" fill="#FEF8EC"/>
<path d="M75.8493 152.656C75.5467 152.607 75.3755 152.339 75.441 151.932C75.616 150.86 77.181 150.857 77.8902 150.971C78.7057 151.101 80.0039 151.658 79.7707 153.098L79.2181 156.499C79.1873 156.694 79.2069 156.899 79.3786 156.926C79.5755 156.957 79.8876 156.78 80.1102 156.574L80.1572 156.703C79.6102 157.326 79.2762 157.475 78.8568 157.407C78.3847 157.331 77.9361 157.017 78.0564 156.273L78.2024 155.372C77.6223 156.366 76.7358 157.095 75.5266 156.901C74.6456 156.76 74.2463 156.145 74.3632 155.426C74.5617 154.197 75.9701 154.087 77.0714 153.941C77.7443 153.862 78.2622 153.664 78.5268 153.37L78.6034 152.98C78.7622 151.998 78.4283 151.395 77.7336 151.283C76.5115 151.087 76.6793 152.791 75.8515 152.659L75.8493 152.656ZM78.4574 153.787C78.1 153.998 77.5603 154.166 77.0037 154.265C76.1155 154.417 75.6597 154.814 75.5685 155.375C75.4773 155.938 75.8001 156.271 76.2218 156.339C77.0625 156.475 77.9797 155.48 78.3316 154.556L78.4574 153.785V153.787Z" fill="#FEF8EC"/>
<path d="M86.9038 158.033C86.953 158.066 86.9474 158.238 86.8814 158.23L83.8124 157.893C83.7592 157.888 83.7777 157.717 83.8342 157.695C84.2151 157.644 84.7347 157.781 84.8007 157.189L85.2017 153.581C85.2655 153.002 84.9321 152.632 84.4288 152.576C83.8868 152.516 83.2743 152.835 82.8968 153.462L82.512 156.936C82.446 157.528 83.0897 157.519 83.4511 157.653C83.5003 157.686 83.4818 157.857 83.4292 157.851L80.3597 157.514C80.3066 157.509 80.325 157.338 80.3815 157.316C80.7624 157.265 81.2826 157.401 81.348 156.81L81.7423 153.135C81.7916 152.687 81.607 152.547 81.3027 152.514C81.197 152.503 81.089 152.503 80.9688 152.503C80.8592 152.518 80.8318 152.29 80.9285 152.258L82.7581 151.712C82.9091 151.676 83.0735 151.774 83.0478 151.997L82.946 152.919C83.3728 152.326 84.0982 151.819 84.9864 151.917C85.9658 152.025 86.4692 152.799 86.3511 153.866L85.968 157.316C85.902 157.908 86.5458 157.899 86.9071 158.033H86.9038Z" fill="#FEF8EC"/>
<path d="M89.0251 152.426L90.4861 152.522L90.4603 152.865L88.9994 152.769L88.6806 156.97C88.6492 157.38 88.7991 157.695 89.184 157.725C89.5414 157.752 89.8423 157.496 90.0224 156.872L90.236 156.888C89.9933 157.959 89.2969 158.517 88.5944 158.465C87.9305 158.414 87.4294 157.819 87.4948 156.961L87.8214 152.667L87.0244 152.607L87.0496 152.264C87.9926 152.335 88.5743 151.874 88.9121 149.535L89.2438 149.56L89.0251 152.426Z" fill="#FEF8EC"/>
<path d="M100.099 158.276C101.151 158.285 101.652 157.311 101.914 156.451L102.047 156.438C101.848 157.734 100.879 158.864 99.5606 158.853C98.9878 158.848 98.5247 158.632 98.127 158.283C97.5509 158.688 96.8702 158.775 96.3126 158.77C94.888 158.757 93.7626 158.111 93.7755 156.694C93.79 155.144 95.1436 154.269 96.557 153.965C96.5458 153.779 96.5458 153.607 96.5475 153.434C96.562 151.818 97.1443 149.359 99.2887 149.379C100.407 149.39 101.12 150.045 101.111 151.065C101.096 152.707 99.1942 153.908 97.7551 154.068C97.8502 155.248 98.1287 156.748 98.8144 157.601C100.29 156.516 101.259 153.874 99.5952 153.872H99.409L99.4112 153.633L101.607 153.653V153.812C100.978 153.952 100.914 156.549 99.0119 157.815C99.3016 158.096 99.6736 158.271 100.099 158.276ZM94.8841 156.36C94.8751 157.392 95.5172 158.42 96.6756 158.43C97.1275 158.434 97.5565 158.28 97.9301 158.099C97.0878 157.164 96.6879 155.543 96.5805 154.257C95.5922 154.565 94.8936 155.302 94.8841 156.362V156.36ZM99.9912 151.081C99.9985 150.207 99.659 149.62 99.0863 149.615C97.9156 149.604 97.7187 152.094 97.7092 153.086C97.7075 153.299 97.7187 153.536 97.7293 153.801C98.9973 153.522 99.9784 152.551 99.9912 151.079V151.081Z" fill="#FEF8EC"/>
<path d="M108.211 149.904C108.178 149.468 107.553 149.488 107.354 149.503L107.141 149.519C106.092 149.597 105.797 150.481 105.496 151.62C105.466 151.755 105.24 151.786 105.256 151.639L105.448 149.194C105.464 149.048 105.656 149.125 105.767 149.17C105.946 149.251 106.626 149.239 107.066 149.207L110.465 148.957C110.903 148.924 111.578 148.835 111.744 148.73C111.833 148.67 112.025 148.563 112.063 148.706L112.616 151.096C112.654 151.24 112.426 151.243 112.364 151.114C111.895 150.033 111.474 149.202 110.438 149.278L110.226 149.294C110.013 149.311 109.391 149.383 109.424 149.819L109.995 157.48C110.038 158.075 110.564 157.956 110.943 158.021C110.998 158.03 111.011 158.215 110.958 158.219L107.958 158.44C107.892 158.445 107.89 158.258 107.943 158.242C108.308 158.123 108.831 158.164 108.787 157.569L108.217 149.907L108.211 149.904Z" fill="#FEF8EC"/>
<path d="M112.595 153.972C112.29 154.006 112.051 153.794 112.004 153.386C111.878 152.306 113.385 151.88 114.098 151.798C114.918 151.703 116.319 151.889 116.489 153.337L116.886 156.759C116.908 156.957 116.985 157.148 117.156 157.128C117.355 157.104 117.606 156.85 117.763 156.591L117.843 156.701C117.488 157.449 117.207 157.681 116.784 157.73C116.308 157.784 115.79 157.605 115.705 156.853L115.598 155.946C115.312 157.059 114.658 158.002 113.441 158.142C112.555 158.244 112.002 157.761 111.918 157.037C111.774 155.799 113.098 155.315 114.119 154.877C114.747 154.618 115.19 154.288 115.363 153.934L115.33 153.538C115.216 152.551 114.73 152.061 114.028 152.141C112.797 152.283 113.426 153.878 112.593 153.974L112.595 153.972ZM115.414 154.355C115.128 154.654 114.654 154.963 114.147 155.208C113.333 155.594 113.003 156.099 113.069 156.665C113.135 157.231 113.538 157.465 113.961 157.416C114.807 157.318 115.418 156.115 115.505 155.132L115.416 154.355H115.414Z" fill="#FEF8EC"/>
<path d="M120.243 159.431C120.338 160.019 120.955 159.908 121.341 159.886L121.37 160.07L118.321 160.556L118.292 160.373C118.667 160.273 119.181 160.204 119.087 159.616L118.299 154.805L117.989 152.882C117.917 152.437 117.7 152.35 117.399 152.399C117.294 152.415 117.192 152.446 117.075 152.477C116.971 152.508 116.885 152.306 116.971 152.252L118.589 151.243C118.726 151.167 118.908 151.219 118.944 151.441L119.103 152.341C119.353 151.63 119.953 150.998 120.834 150.858C121.937 150.682 122.82 151.386 123.096 153.101C123.44 155.246 122.488 156.874 120.726 157.154C120.437 157.199 120.166 157.19 119.884 157.193L120.243 159.431ZM120.434 151.646C119.935 151.726 119.417 152.198 119.194 152.903L119.679 155.925C119.774 156.513 120 156.919 120.659 156.816C121.737 156.643 122.264 155.393 121.981 153.64C121.746 152.176 121.144 151.533 120.433 151.646H120.434Z" fill="#FEF8EC"/>
<path d="M124.279 152.261C123.98 152.324 123.721 152.136 123.635 151.733C123.408 150.671 124.865 150.103 125.569 149.954C126.376 149.784 127.79 149.835 128.095 151.261L128.817 154.629C128.859 154.823 128.952 155.006 129.122 154.97C129.317 154.928 129.543 154.651 129.676 154.379L129.765 154.482C129.482 155.261 129.225 155.518 128.808 155.607C128.339 155.707 127.807 155.576 127.649 154.838L127.458 153.943C127.279 155.077 126.718 156.077 125.52 156.333C124.648 156.518 124.051 156.09 123.898 155.376C123.637 154.159 124.908 153.551 125.884 153.017C126.484 152.7 126.894 152.329 127.033 151.962L126.962 151.569C126.754 150.599 126.223 150.156 125.534 150.301C124.323 150.559 125.1 152.087 124.279 152.261ZM127.123 152.375C126.865 152.7 126.424 153.052 125.942 153.344C125.171 153.805 124.89 154.34 125.009 154.897C125.127 155.454 125.55 155.649 125.968 155.562C126.802 155.386 127.294 154.128 127.286 153.141L127.123 152.377V152.375Z" fill="#FEF8EC"/>
<path d="M130.612 148.859C131.398 148.653 131.849 148.905 132.095 148.84C132.212 148.81 132.332 148.697 132.261 148.427L132.571 148.347L133.105 150.372L132.861 150.435C132.542 149.437 131.632 148.908 130.886 149.104C130.371 149.238 130.063 149.688 130.195 150.189C130.559 151.572 133.542 150.506 134.072 152.517C134.349 153.567 133.684 154.384 132.615 154.664C131.803 154.876 131.236 154.655 130.954 154.729C130.811 154.766 130.691 154.88 130.762 155.148L130.454 155.228L129.886 153.076L130.131 153.013C130.463 154.007 131.544 154.615 132.382 154.397C132.962 154.246 133.33 153.711 133.171 153.108C132.762 151.559 129.794 152.773 129.285 150.851C129.042 149.929 129.574 149.132 130.618 148.859H130.612Z" fill="#FEF8EC"/>
<path d="M141.99 151.612L138.28 152.937C138.231 152.955 138.171 152.794 138.213 152.75C138.532 152.538 139.061 152.433 138.859 151.872L136.258 144.666C136.055 144.105 135.581 144.359 135.198 144.397C135.144 144.403 135.081 144.228 135.131 144.211L138.802 142.898C140.505 142.288 141.93 142.668 142.375 143.902C142.798 145.074 142.01 145.835 141.034 146.381C142.364 145.949 143.735 146.219 144.275 147.715C144.855 149.322 143.945 150.916 141.99 151.615V151.612ZM137.418 144.392L138.408 147.136L140.288 146.465C141.204 146.138 141.574 145.245 141.188 144.172C140.804 143.113 140.031 142.812 138.578 143.33C137.613 143.675 137.292 144.044 137.419 144.392H137.418ZM140.374 146.783L138.519 147.446L139.936 151.373C140.053 151.698 140.599 151.756 141.388 151.474C143.004 150.898 143.657 149.607 143.148 148.199C142.679 146.901 141.539 146.366 140.374 146.783Z" fill="#FEF8EC"/>
<path d="M144.912 146.109C144.633 146.234 144.34 146.103 144.172 145.728C143.725 144.736 145.031 143.878 145.686 143.584C146.439 143.249 147.833 143.003 148.432 144.333L149.849 147.477C149.932 147.658 150.061 147.818 150.22 147.747C150.402 147.665 150.564 147.346 150.635 147.052L150.745 147.134C150.634 147.954 150.435 148.259 150.046 148.433C149.609 148.629 149.061 148.611 148.752 147.923L148.376 147.088C148.442 148.235 148.102 149.329 146.986 149.829C146.172 150.191 145.5 149.898 145.199 149.231C144.686 148.096 145.801 147.235 146.641 146.51C147.159 146.074 147.484 145.626 147.541 145.237L147.389 144.869C146.981 143.962 146.368 143.641 145.724 143.927C144.595 144.432 145.676 145.764 144.911 146.105L144.912 146.109ZM147.716 145.626C147.533 145.998 147.176 146.433 146.765 146.82C146.107 147.433 145.947 148.014 146.18 148.533C146.414 149.052 146.869 149.155 147.258 148.981C148.035 148.635 148.252 147.303 148.037 146.339L147.716 145.626Z" fill="#FEF8EC"/>
<path d="M150.091 143.226C149.879 142.827 149.648 142.814 149.376 142.957C149.281 143.006 149.194 143.068 149.093 143.135C149.006 143.197 148.858 143.034 148.922 142.956L150.129 141.484C150.233 141.37 150.425 141.358 150.53 141.558L150.959 142.367C150.959 141.603 151.213 140.886 151.754 140.604C152.52 140.203 152.998 141.134 152.469 141.413C152.269 141.518 152.077 141.439 151.806 141.582C151.452 141.767 151.205 142.212 151.207 142.808L152.876 145.96C153.155 146.488 153.684 146.12 154.056 146.029C154.116 146.029 154.196 146.18 154.149 146.206L151.417 147.637C151.369 147.663 151.289 147.51 151.324 147.461C151.61 147.207 152.119 147.029 151.84 146.503L150.091 143.228V143.226Z" fill="#FEF8EC"/>
<path d="M99.3843 31.4443C97.7175 32.5114 95.8152 32.8616 94.1334 34.052C91.7842 35.7179 88.4395 39.5033 87.8287 42.3524C86.6759 47.7548 89.6616 54.5363 94.1373 57.6124C97.878 60.1835 100.856 60.0455 105.162 58.8735C109.47 57.7009 111.838 54.705 114.759 51.4839C112.828 60.0694 102.636 64.8689 94.5204 61.9694C92.4207 61.2197 88.1531 58.6191 86.776 56.9206C85.2385 55.0208 83.1231 49.3154 83.2506 46.9363C83.5297 41.7045 85.1311 38.2494 89.1179 34.9031C91.0168 33.3098 93.0321 32.3099 95.3516 31.4516H99.3787V31.448L99.3843 31.4443Z" fill="#FEF8EC"/>
<path d="M110.728 36.1823L107.434 37.4689L106.332 37.6376L107.797 43.1034C106.655 42.804 105.014 39.2599 104.29 39.1075L100.115 42.1943C100.437 40.8714 102.524 38.5195 101.598 37.4344L99.3765 35.8193C100.361 35.6959 101.804 36.086 102.678 35.6396C103.671 35.1352 103.413 33.2497 104.319 32.542L105.59 35.6433L110.726 36.1804V36.184L110.728 36.1823Z" fill="#FEF8EC"/>
<path d="M109.595 81.1452C108.357 81.1452 106.924 82.0852 106.11 83.7058V91.1932C106.11 92.6524 106.501 93.7209 108.131 93.7209C110.803 93.7209 112.562 90.9011 112.562 86.5568C112.562 82.9272 111.356 81.1436 109.598 81.1436L109.595 81.1452Z" fill="#FEF8EC"/>
<path d="M136.408 80.2373C134.649 80.2373 133.475 81.7616 132.955 83.7378H139.112C139.112 81.4366 137.972 80.2373 136.408 80.2373Z" fill="#FEF8EC"/>
<path d="M62.0372 80.2373C60.2792 80.2373 59.1046 81.7616 58.5845 83.7378H64.7421C64.7421 81.4366 63.6022 80.2373 62.0372 80.2373Z" fill="#FEF8EC"/>
<path d="M154.886 85.6803L158.869 64.365C158.086 64.311 144.758 70.1996 138.608 72.3099L120.587 65.8186L100.492 69.4644C95.9433 67.9184 82.9519 58.8287 81.7376 59.5166L60.5046 73.3879C52.1733 72.375 43.8347 71.2881 35.4707 70.5569C37.1012 75.5004 42.4067 86.4194 42.4395 87.1306C41.4 96.4418 39.6929 105.706 38.7682 115.001C46.3206 112.256 53.5831 108.716 60.9935 105.604C68.4179 105.662 75.8485 106.905 83.2366 107.72L98.6498 102.258C99.0911 102.232 106.908 114.164 107.415 114.193L123.53 105.867L136.697 109.897L148.453 103.702L162.529 107.348C160.47 99.9768 157.326 92.9357 154.883 85.6803H154.886ZM96.0087 71.5514C97.1162 71.5514 97.8657 72.4585 97.8657 73.7891C97.8657 75.1192 97.1162 76.0247 96.0087 76.0247C94.9018 76.0247 94.1523 75.117 94.1523 73.7891C94.1523 72.4607 94.9018 71.5514 96.0087 71.5514ZM61.5114 94.6632C58.0587 94.6632 55.6476 91.7781 55.6476 87.4028C55.6476 82.6044 58.6113 79.3961 62.2939 79.3961C64.8343 79.3961 67.6684 80.8881 67.6684 84.5829H58.3837C58.2847 85.165 58.2209 85.7822 58.2209 86.3971C58.2209 90.0919 60.1433 92.6524 62.9449 92.6524C64.9965 92.6524 66.6583 91.2589 67.3418 89.2482H67.7652C66.8205 92.7159 64.3125 94.6615 61.5092 94.6615L61.5114 94.6632ZM75.9106 94.6632C71.9998 94.6632 70.0797 91.0975 70.0797 87.4356C70.0797 83.481 72.2957 79.3961 76.6601 79.3961C80.2107 79.3961 81.7102 82.0546 81.7102 83.6429C81.7102 84.5829 81.1559 85.2307 80.5043 85.2307C79.7878 85.2307 79.1698 84.4849 79.1367 83.0908C79.1037 81.5665 78.3543 80.173 76.6288 80.173C74.0883 80.173 72.6878 83.2199 72.6878 86.2669C72.6878 89.3139 74.1213 92.6524 77.3458 92.6524C79.4304 92.6524 81.0916 91.2589 81.8086 89.2482H82.2315C81.2868 92.7159 78.7793 94.6615 75.9123 94.6615L75.9106 94.6632ZM90.6666 94.2424H83.1091C82.9776 94.2424 82.9776 93.8211 83.1091 93.756C84.0208 93.529 85.3251 93.7232 85.3251 92.2645L85.2921 75.2789C85.2921 74.177 84.8362 73.8849 84.0537 73.8849C83.8255 73.8849 83.5319 73.9177 83.2383 73.9505C82.9776 73.9834 82.8484 73.4313 83.0761 73.335L87.3767 71.553C87.7358 71.3916 88.1592 71.6187 88.1592 72.1685L88.1922 92.2662C88.1922 93.7248 89.7549 93.5312 90.6688 93.7577C90.7981 93.8234 90.7981 94.2441 90.6688 94.2441L90.6666 94.2424ZM100.114 94.2424H92.5566C92.4251 94.2424 92.4251 93.8211 92.5566 93.756C93.4683 93.529 94.7726 93.7232 94.7726 92.2645L94.7396 83.1888C94.7396 82.0874 94.2508 81.7953 93.5013 81.7953C93.2401 81.7953 92.9794 81.8281 92.6858 81.8609C92.4251 81.8932 92.2954 81.3745 92.5236 81.2782L96.8242 79.4634C97.1833 79.3349 97.6067 79.5285 97.6067 80.0784L97.6391 92.2662C97.6391 93.7248 99.2024 93.5312 100.116 93.7577C100.246 93.8234 100.246 94.2441 100.116 94.2441L100.114 94.2424ZM108.159 94.5652C107.442 94.5652 106.791 94.4366 106.107 94.3387V99.8805C106.107 101.34 107.639 101.307 108.584 101.403V101.857H101.026V101.403C101.971 101.305 103.242 101.338 103.242 99.8805L103.209 87.9526V83.1871C103.209 82.0858 102.721 81.7936 101.971 81.7936C101.71 81.7936 101.449 81.8264 101.156 81.8587C100.895 81.8915 100.765 81.3723 100.993 81.2766L105.294 79.4618C105.653 79.3326 106.076 79.5269 106.076 80.0767L106.109 82.3123C106.988 80.6922 108.682 79.3961 110.866 79.3961C113.602 79.3961 115.46 81.438 115.46 85.6842C115.46 90.9996 112.527 94.5652 108.163 94.5652H108.159ZM123.113 94.5652C121.061 94.5652 119.855 93.6903 119.138 93.6903C118.781 93.6903 118.422 93.8846 118.422 94.5652H117.639V89.1196H118.258C118.42 91.6802 120.603 93.7866 122.721 93.7866C124.187 93.7866 125.393 92.7487 125.393 91.2261C125.393 87.3048 117.606 88.3411 117.606 83.4793C117.606 81.1458 119.365 79.5903 122.004 79.5903C123.992 79.5903 124.904 80.4652 125.522 80.4652C125.816 80.4652 126.173 80.2709 126.173 79.5903H126.955V84.7114H126.337C126.206 82.1509 124.382 80.3361 122.493 80.3361C121.19 80.3361 120.18 81.2109 120.18 82.4759C120.18 85.9764 127.9 85.2958 127.9 90.3841C127.9 93.0426 125.816 94.5652 123.111 94.5652H123.113ZM135.883 94.6632C132.431 94.6632 130.019 91.7781 130.019 87.4028C130.019 82.6044 132.983 79.3961 136.666 79.3961C139.206 79.3961 142.04 80.8881 142.04 84.5829H132.755C132.657 85.165 132.593 85.7822 132.593 86.3971C132.593 90.0919 134.515 92.6524 137.317 92.6524C139.368 92.6524 141.03 91.2589 141.714 89.2482H142.137C141.192 92.7159 138.684 94.6615 135.881 94.6615L135.883 94.6632Z" fill="#FEF8EC"/>
</svg>
