<svg width="136" height="24" viewBox="0 0 136 24" fill="none" xmlns="http://www.w3.org/2000/svg">
<path d="M8.24325 7.33992L1.86325 8.26492L1.75025 8.28792C1.57919 8.33333 1.42325 8.42333 1.29835 8.54872C1.17344 8.67412 1.08406 8.83041 1.03932 9.00165C0.994575 9.17289 0.996081 9.35293 1.04368 9.5234C1.09128 9.69386 1.18327 9.84864 1.31025 9.97192L5.93225 14.4709L4.84225 20.8259L4.82925 20.9359C4.81878 21.1128 4.85552 21.2894 4.9357 21.4474C5.01589 21.6055 5.13664 21.7394 5.28559 21.8354C5.43454 21.9315 5.60634 21.9862 5.7834 21.994C5.96046 22.0018 6.13642 21.9625 6.29325 21.8799L11.9993 18.8799L17.6923 21.8799L17.7923 21.9259C17.9573 21.9909 18.1367 22.0109 18.312 21.9837C18.4873 21.9565 18.6522 21.8832 18.7898 21.7712C18.9275 21.6592 19.0328 21.5127 19.0951 21.3466C19.1574 21.1804 19.1743 21.0008 19.1443 20.8259L18.0533 14.4709L22.6773 9.97092L22.7553 9.88592C22.8667 9.74869 22.9397 9.58438 22.967 9.40972C22.9942 9.23506 22.9747 9.0563 22.9103 8.89165C22.846 8.72701 22.7392 8.58235 22.6007 8.47244C22.4623 8.36252 22.2972 8.29126 22.1223 8.26592L15.7423 7.33992L12.8903 1.55992C12.8077 1.39246 12.68 1.25144 12.5214 1.15283C12.3629 1.05422 12.1799 1.00195 11.9933 1.00195C11.8066 1.00195 11.6236 1.05422 11.4651 1.15283C11.3065 1.25144 11.1788 1.39246 11.0963 1.55992L8.24325 7.33992Z" fill="#FFCD06"/>
<path d="M36.2433 7.33992L29.8633 8.26492L29.7503 8.28792C29.5792 8.33333 29.4232 8.42333 29.2983 8.54872C29.1734 8.67412 29.0841 8.83041 29.0393 9.00165C28.9946 9.17289 28.9961 9.35293 29.0437 9.5234C29.0913 9.69386 29.1833 9.84864 29.3103 9.97192L33.9323 14.4709L32.8423 20.8259L32.8293 20.9359C32.8188 21.1128 32.8555 21.2894 32.9357 21.4474C33.0159 21.6055 33.1366 21.7394 33.2856 21.8354C33.4345 21.9315 33.6063 21.9862 33.7834 21.994C33.9605 22.0018 34.1364 21.9625 34.2933 21.8799L39.9993 18.8799L45.6923 21.8799L45.7923 21.9259C45.9573 21.9909 46.1367 22.0109 46.312 21.9837C46.4873 21.9565 46.6522 21.8832 46.7898 21.7712C46.9275 21.6592 47.0328 21.5127 47.0951 21.3466C47.1574 21.1804 47.1743 21.0008 47.1443 20.8259L46.0533 14.4709L50.6773 9.97092L50.7553 9.88592C50.8667 9.74869 50.9397 9.58438 50.967 9.40972C50.9942 9.23506 50.9747 9.0563 50.9103 8.89165C50.846 8.72701 50.7392 8.58235 50.6007 8.47244C50.4623 8.36252 50.2972 8.29126 50.1223 8.26592L43.7423 7.33992L40.8903 1.55992C40.8077 1.39246 40.68 1.25144 40.5214 1.15283C40.3629 1.05422 40.1799 1.00195 39.9933 1.00195C39.8066 1.00195 39.6236 1.05422 39.4651 1.15283C39.3065 1.25144 39.1788 1.39246 39.0963 1.55992L36.2433 7.33992Z" fill="#FFCD06"/>
<path d="M64.2433 7.33992L57.8633 8.26492L57.7503 8.28792C57.5792 8.33333 57.4232 8.42333 57.2983 8.54872C57.1734 8.67412 57.0841 8.83041 57.0393 9.00165C56.9946 9.17289 56.9961 9.35293 57.0437 9.5234C57.0913 9.69386 57.1833 9.84864 57.3103 9.97192L61.9323 14.4709L60.8423 20.8259L60.8293 20.9359C60.8188 21.1128 60.8555 21.2894 60.9357 21.4474C61.0159 21.6055 61.1366 21.7394 61.2856 21.8354C61.4345 21.9315 61.6063 21.9862 61.7834 21.994C61.9605 22.0018 62.1364 21.9625 62.2933 21.8799L67.9993 18.8799L73.6923 21.8799L73.7923 21.9259C73.9573 21.9909 74.1367 22.0109 74.312 21.9837C74.4873 21.9565 74.6522 21.8832 74.7898 21.7712C74.9275 21.6592 75.0328 21.5127 75.0951 21.3466C75.1574 21.1804 75.1743 21.0008 75.1443 20.8259L74.0533 14.4709L78.6773 9.97092L78.7553 9.88592C78.8667 9.74869 78.9397 9.58438 78.967 9.40972C78.9942 9.23506 78.9747 9.0563 78.9103 8.89165C78.846 8.72701 78.7392 8.58235 78.6007 8.47244C78.4623 8.36252 78.2972 8.29126 78.1223 8.26592L71.7423 7.33992L68.8903 1.55992C68.8077 1.39246 68.68 1.25144 68.5214 1.15283C68.3629 1.05422 68.1799 1.00195 67.9933 1.00195C67.8066 1.00195 67.6236 1.05422 67.4651 1.15283C67.3065 1.25144 67.1788 1.39246 67.0963 1.55992L64.2433 7.33992Z" fill="#FFCD06"/>
<path d="M92.2433 7.33992L85.8633 8.26492L85.7503 8.28792C85.5792 8.33333 85.4232 8.42333 85.2983 8.54872C85.1734 8.67412 85.0841 8.83041 85.0393 9.00165C84.9946 9.17289 84.9961 9.35293 85.0437 9.5234C85.0913 9.69386 85.1833 9.84864 85.3103 9.97192L89.9323 14.4709L88.8423 20.8259L88.8293 20.9359C88.8188 21.1128 88.8555 21.2894 88.9357 21.4474C89.0159 21.6055 89.1366 21.7394 89.2856 21.8354C89.4345 21.9315 89.6063 21.9862 89.7834 21.994C89.9605 22.0018 90.1364 21.9625 90.2933 21.8799L95.9993 18.8799L101.692 21.8799L101.792 21.9259C101.957 21.9909 102.137 22.0109 102.312 21.9837C102.487 21.9565 102.652 21.8832 102.79 21.7712C102.927 21.6592 103.033 21.5127 103.095 21.3466C103.157 21.1804 103.174 21.0008 103.144 20.8259L102.053 14.4709L106.677 9.97092L106.755 9.88592C106.867 9.74869 106.94 9.58438 106.967 9.40972C106.994 9.23506 106.975 9.0563 106.91 8.89165C106.846 8.72701 106.739 8.58235 106.601 8.47244C106.462 8.36252 106.297 8.29126 106.122 8.26592L99.7423 7.33992L96.8903 1.55992C96.8077 1.39246 96.68 1.25144 96.5214 1.15283C96.3629 1.05422 96.1799 1.00195 95.9933 1.00195C95.8066 1.00195 95.6236 1.05422 95.4651 1.15283C95.3065 1.25144 95.1788 1.39246 95.0963 1.55992L92.2433 7.33992Z" fill="#FFCD06"/>
<path d="M120.243 7.33992L113.863 8.26492L113.75 8.28792C113.579 8.33333 113.423 8.42333 113.298 8.54872C113.173 8.67412 113.084 8.83041 113.039 9.00165C112.995 9.17289 112.996 9.35293 113.044 9.5234C113.091 9.69386 113.183 9.84864 113.31 9.97192L117.932 14.4709L116.842 20.8259L116.829 20.9359C116.819 21.1128 116.856 21.2894 116.936 21.4474C117.016 21.6055 117.137 21.7394 117.286 21.8354C117.435 21.9315 117.606 21.9862 117.783 21.994C117.96 22.0018 118.136 21.9625 118.293 21.8799L123.999 18.8799L129.692 21.8799L129.792 21.9259C129.957 21.9909 130.137 22.0109 130.312 21.9837C130.487 21.9565 130.652 21.8832 130.79 21.7712C130.927 21.6592 131.033 21.5127 131.095 21.3466C131.157 21.1804 131.174 21.0008 131.144 20.8259L130.053 14.4709L134.677 9.97092L134.755 9.88592C134.867 9.74869 134.94 9.58438 134.967 9.40972C134.994 9.23506 134.975 9.0563 134.91 8.89165C134.846 8.72701 134.739 8.58235 134.601 8.47244C134.462 8.36252 134.297 8.29126 134.122 8.26592L127.742 7.33992L124.89 1.55992C124.808 1.39246 124.68 1.25144 124.521 1.15283C124.363 1.05422 124.18 1.00195 123.993 1.00195C123.807 1.00195 123.624 1.05422 123.465 1.15283C123.307 1.25144 123.179 1.39246 123.096 1.55992L120.243 7.33992Z" fill="#FFCD06"/>
</svg>
