<svg width="312" height="54" viewBox="0 0 312 54" fill="none" xmlns="http://www.w3.org/2000/svg">
<path d="M311.669 8.02844C311.764 7.43007 311.309 6.88535 310.704 6.87191L1.02228 0.000285763C0.406708 -0.0133736 -0.0748596 0.527201 0.009552 1.13712L7.19745 53.0764C7.26794 53.5859 7.71341 53.9588 8.22733 53.9386L305.424 42.2373C305.901 42.2185 306.298 41.8659 306.372 41.3948L311.669 8.02844Z" fill="#F4CE9F"/>
<path d="M29.4446 35.0553V20.2233H23.4446V18.1353H37.9166V20.2233H31.9166V35.0553H29.4446ZM39.7245 35.0553V18.1353H42.1485V25.8393H41.8125C42.1645 24.9433 42.7165 24.2713 43.4685 23.8233C44.2205 23.3593 45.0845 23.1273 46.0605 23.1273C46.9885 23.1273 47.7565 23.3033 48.3645 23.6553C48.9885 23.9913 49.4525 24.5113 49.7565 25.2153C50.0605 25.9033 50.2125 26.7753 50.2125 27.8313V35.0553H47.7885V27.9753C47.7885 27.3033 47.7005 26.7593 47.5245 26.3433C47.3485 25.9113 47.0845 25.5913 46.7325 25.3833C46.3805 25.1753 45.9245 25.0713 45.3645 25.0713C44.7245 25.0713 44.1565 25.2073 43.6605 25.4793C43.1805 25.7513 42.8045 26.1433 42.5325 26.6553C42.2765 27.1673 42.1485 27.7593 42.1485 28.4313V35.0553H39.7245ZM59.0486 35.2713C57.7686 35.2713 56.6646 35.0313 55.7366 34.5513C54.8246 34.0553 54.1126 33.3593 53.6006 32.4633C53.1046 31.5513 52.8566 30.4713 52.8566 29.2233C52.8566 28.0073 53.1046 26.9433 53.6006 26.0313C54.0966 25.1193 54.7766 24.4073 55.6406 23.8953C56.5046 23.3833 57.4886 23.1273 58.5926 23.1273C59.6806 23.1273 60.6086 23.3673 61.3766 23.8473C62.1606 24.3113 62.7606 24.9753 63.1766 25.8393C63.5926 26.7033 63.8006 27.7353 63.8006 28.9353V29.7513H54.7766V28.2633H62.1686L61.7606 28.5993C61.7606 27.3993 61.4966 26.4713 60.9686 25.8153C60.4406 25.1593 59.6806 24.8313 58.6886 24.8313C57.9366 24.8313 57.2966 25.0073 56.7686 25.3593C56.2566 25.7113 55.8646 26.1993 55.5926 26.8233C55.3206 27.4473 55.1846 28.1753 55.1846 29.0073V29.1513C55.1846 30.0793 55.3286 30.8633 55.6166 31.5033C55.9206 32.1273 56.3606 32.5993 56.9366 32.9193C57.5126 33.2393 58.2246 33.3993 59.0726 33.3993C59.7446 33.3993 60.4006 33.2953 61.0406 33.0873C61.6966 32.8633 62.3126 32.5193 62.8886 32.0553L63.6086 33.7353C63.0806 34.2153 62.4006 34.5913 61.5686 34.8633C60.7366 35.1353 59.8966 35.2713 59.0486 35.2713ZM78.3639 35.0553L70.8999 18.1353H73.5639L79.9479 32.9433H79.0599L85.4199 18.1353H87.9639L80.4999 35.0553H78.3639ZM93.1875 35.2713C92.0035 35.2713 90.9795 35.0233 90.1155 34.5273C89.2675 34.0313 88.6035 33.3273 88.1235 32.4153C87.6435 31.5033 87.4035 30.4313 87.4035 29.1993C87.4035 27.9513 87.6435 26.8793 88.1235 25.9833C88.6035 25.0713 89.2675 24.3673 90.1155 23.8713C90.9795 23.3753 92.0035 23.1273 93.1875 23.1273C94.3555 23.1273 95.3635 23.3753 96.2115 23.8713C97.0755 24.3673 97.7475 25.0713 98.2275 25.9833C98.7075 26.8953 98.9475 27.9673 98.9475 29.1993C98.9475 30.4313 98.7075 31.5033 98.2275 32.4153C97.7475 33.3273 97.0755 34.0313 96.2115 34.5273C95.3635 35.0233 94.3555 35.2713 93.1875 35.2713ZM93.1635 33.3993C94.1715 33.3993 94.9795 33.0393 95.5875 32.3193C96.1955 31.5993 96.4995 30.5593 96.4995 29.1993C96.4995 27.8233 96.1955 26.7833 95.5875 26.0793C94.9795 25.3753 94.1715 25.0233 93.1635 25.0233C92.1715 25.0233 91.3715 25.3753 90.7635 26.0793C90.1555 26.7833 89.8515 27.8233 89.8515 29.1993C89.8515 30.5593 90.1555 31.5993 90.7635 32.3193C91.3715 33.0393 92.1715 33.3993 93.1635 33.3993ZM101.454 20.6313V18.1113H104.286V20.6313H101.454ZM101.67 35.0553V23.3433H104.094V35.0553H101.67ZM112.666 35.2713C111.466 35.2713 110.426 35.0233 109.546 34.5273C108.682 34.0153 108.01 33.3033 107.53 32.3913C107.05 31.4633 106.81 30.3753 106.81 29.1273C106.81 27.8953 107.05 26.8313 107.53 25.9353C108.01 25.0393 108.682 24.3513 109.546 23.8713C110.426 23.3753 111.466 23.1273 112.666 23.1273C113.402 23.1273 114.13 23.2553 114.85 23.5113C115.57 23.7513 116.162 24.1033 116.626 24.5673L115.858 26.2713C115.426 25.8553 114.938 25.5513 114.394 25.3593C113.85 25.1513 113.338 25.0473 112.858 25.0473C111.722 25.0473 110.842 25.4073 110.218 26.1273C109.61 26.8313 109.306 27.8393 109.306 29.1513C109.306 30.4633 109.61 31.4953 110.218 32.2473C110.842 32.9833 111.722 33.3513 112.858 33.3513C113.338 33.3513 113.85 33.2553 114.394 33.0633C114.938 32.8553 115.426 32.5433 115.858 32.1273L116.626 33.8553C116.162 34.2873 115.562 34.6313 114.826 34.8873C114.106 35.1433 113.386 35.2713 112.666 35.2713ZM123.971 35.2713C122.691 35.2713 121.587 35.0313 120.659 34.5513C119.747 34.0553 119.035 33.3593 118.523 32.4633C118.027 31.5513 117.779 30.4713 117.779 29.2233C117.779 28.0073 118.027 26.9433 118.523 26.0313C119.019 25.1193 119.699 24.4073 120.563 23.8953C121.427 23.3833 122.411 23.1273 123.515 23.1273C124.603 23.1273 125.531 23.3673 126.299 23.8473C127.083 24.3113 127.683 24.9753 128.099 25.8393C128.515 26.7033 128.723 27.7353 128.723 28.9353V29.7513H119.699V28.2633H127.091L126.683 28.5993C126.683 27.3993 126.419 26.4713 125.891 25.8153C125.363 25.1593 124.603 24.8313 123.611 24.8313C122.859 24.8313 122.219 25.0073 121.691 25.3593C121.179 25.7113 120.787 26.1993 120.515 26.8233C120.243 27.4473 120.107 28.1753 120.107 29.0073V29.1513C120.107 30.0793 120.251 30.8633 120.539 31.5033C120.843 32.1273 121.283 32.5993 121.859 32.9193C122.435 33.2393 123.147 33.3993 123.995 33.3993C124.667 33.3993 125.323 33.2953 125.963 33.0873C126.619 32.8633 127.235 32.5193 127.811 32.0553L128.531 33.7353C128.003 34.2153 127.323 34.5913 126.491 34.8633C125.659 35.1353 124.819 35.2713 123.971 35.2713ZM142.758 35.2713C141.574 35.2713 140.55 35.0233 139.686 34.5273C138.838 34.0313 138.174 33.3273 137.694 32.4153C137.214 31.5033 136.974 30.4313 136.974 29.1993C136.974 27.9513 137.214 26.8793 137.694 25.9833C138.174 25.0713 138.838 24.3673 139.686 23.8713C140.55 23.3753 141.574 23.1273 142.758 23.1273C143.926 23.1273 144.934 23.3753 145.782 23.8713C146.646 24.3673 147.318 25.0713 147.798 25.9833C148.278 26.8953 148.518 27.9673 148.518 29.1993C148.518 30.4313 148.278 31.5033 147.798 32.4153C147.318 33.3273 146.646 34.0313 145.782 34.5273C144.934 35.0233 143.926 35.2713 142.758 35.2713ZM142.734 33.3993C143.742 33.3993 144.55 33.0393 145.158 32.3193C145.766 31.5993 146.07 30.5593 146.07 29.1993C146.07 27.8233 145.766 26.7833 145.158 26.0793C144.55 25.3753 143.742 25.0233 142.734 25.0233C141.742 25.0233 140.942 25.3753 140.334 26.0793C139.726 26.7833 139.422 27.8233 139.422 29.1993C139.422 30.5593 139.726 31.5993 140.334 32.3193C140.942 33.0393 141.742 33.3993 142.734 33.3993ZM151.819 35.0553V25.2153H149.539V23.3433H152.515L151.819 23.9913V23.1273C151.819 21.5273 152.227 20.3193 153.043 19.5033C153.875 18.6713 155.147 18.2073 156.859 18.1113L157.915 18.0393L158.083 19.8633L156.979 19.9353C156.323 19.9673 155.795 20.0953 155.395 20.3193C154.995 20.5433 154.699 20.8633 154.507 21.2793C154.331 21.6793 154.243 22.1833 154.243 22.7913V23.7273L153.907 23.3433H157.531V25.2153H154.243V35.0553H151.819ZM173.356 35.2713C172.156 35.2713 171.068 35.0713 170.092 34.6713C169.116 34.2713 168.276 33.6873 167.572 32.9193C166.884 32.1513 166.356 31.2393 165.988 30.1833C165.62 29.1113 165.436 27.9113 165.436 26.5833C165.436 25.2553 165.62 24.0633 165.988 23.0073C166.356 21.9353 166.884 21.0233 167.572 20.2713C168.26 19.5033 169.092 18.9193 170.068 18.5193C171.044 18.1193 172.14 17.9193 173.356 17.9193C174.556 17.9193 175.644 18.1193 176.62 18.5193C177.596 18.9193 178.428 19.4953 179.116 20.2473C179.82 20.9993 180.356 21.9113 180.724 22.9833C181.092 24.0393 181.276 25.2313 181.276 26.5593C181.276 27.8873 181.092 29.0873 180.724 30.1593C180.356 31.2313 179.82 32.1513 179.116 32.9193C178.428 33.6873 177.596 34.2713 176.62 34.6713C175.644 35.0713 174.556 35.2713 173.356 35.2713ZM173.356 33.1113C174.476 33.1113 175.428 32.8553 176.212 32.3433C177.012 31.8313 177.62 31.0873 178.036 30.1113C178.468 29.1353 178.684 27.9593 178.684 26.5833C178.684 25.2073 178.476 24.0313 178.06 23.0553C177.644 22.0793 177.036 21.3433 176.236 20.8473C175.452 20.3353 174.492 20.0793 173.356 20.0793C172.236 20.0793 171.276 20.3353 170.476 20.8473C169.692 21.3433 169.084 22.0793 168.652 23.0553C168.236 24.0313 168.028 25.2073 168.028 26.5833C168.028 27.9433 168.236 29.1193 168.652 30.1113C169.084 31.0873 169.692 31.8313 170.476 32.3433C171.276 32.8553 172.236 33.1113 173.356 33.1113ZM188.533 35.2713C187.589 35.2713 186.797 35.0953 186.157 34.7433C185.533 34.3913 185.061 33.8713 184.741 33.1833C184.437 32.4793 184.285 31.5993 184.285 30.5433V23.3433H186.709V30.5673C186.709 31.1913 186.789 31.7113 186.949 32.1273C187.125 32.5433 187.389 32.8473 187.741 33.0393C188.109 33.2313 188.565 33.3273 189.109 33.3273C189.717 33.3273 190.253 33.1913 190.717 32.9193C191.181 32.6473 191.541 32.2553 191.797 31.7433C192.053 31.2313 192.181 30.6393 192.181 29.9673V23.3433H194.605V35.0553H192.253V32.4873H192.565C192.245 33.3833 191.733 34.0713 191.029 34.5513C190.325 35.0313 189.493 35.2713 188.533 35.2713ZM198.021 35.0553V23.3433H200.373V26.1513H200.133C200.389 25.1913 200.845 24.4633 201.501 23.9673C202.173 23.4713 203.061 23.1833 204.165 23.1033L204.957 23.0553L205.125 25.1193L203.661 25.2633C202.621 25.3593 201.829 25.6873 201.285 26.2473C200.741 26.8073 200.469 27.5753 200.469 28.5513V35.0553H198.021ZM221.463 35.2713C219.623 35.2713 218.071 34.9273 216.807 34.2393C215.543 33.5353 214.583 32.5353 213.927 31.2393C213.287 29.9433 212.967 28.3993 212.967 26.6073C212.967 24.8153 213.295 23.2713 213.951 21.9753C214.623 20.6793 215.575 19.6793 216.807 18.9753C218.055 18.2713 219.551 17.9193 221.295 17.9193C222.095 17.9193 222.855 17.9993 223.575 18.1593C224.295 18.3033 224.959 18.5273 225.567 18.8313C226.191 19.1353 226.735 19.5113 227.199 19.9593L226.311 21.9033C225.559 21.2633 224.775 20.8073 223.959 20.5353C223.159 20.2473 222.271 20.1033 221.295 20.1033C219.423 20.1033 217.999 20.6713 217.023 21.8073C216.047 22.9273 215.559 24.5273 215.559 26.6073C215.559 28.7353 216.063 30.3513 217.071 31.4553C218.079 32.5593 219.575 33.1113 221.559 33.1113C222.279 33.1113 222.983 33.0473 223.671 32.9193C224.375 32.7753 225.047 32.5753 225.687 32.3193L225.183 33.5673V27.9753H221.055V26.1033H227.271V34.0713C226.807 34.3113 226.247 34.5193 225.591 34.6953C224.951 34.8713 224.271 35.0073 223.551 35.1033C222.847 35.2153 222.151 35.2713 221.463 35.2713ZM235.01 35.2713C234.066 35.2713 233.274 35.0953 232.634 34.7433C232.01 34.3913 231.538 33.8713 231.218 33.1833C230.914 32.4793 230.762 31.5993 230.762 30.5433V23.3433H233.186V30.5673C233.186 31.1913 233.266 31.7113 233.426 32.1273C233.602 32.5433 233.866 32.8473 234.218 33.0393C234.586 33.2313 235.042 33.3273 235.586 33.3273C236.194 33.3273 236.73 33.1913 237.194 32.9193C237.658 32.6473 238.018 32.2553 238.274 31.7433C238.53 31.2313 238.658 30.6393 238.658 29.9673V23.3433H241.082V35.0553H238.73V32.4873H239.042C238.722 33.3833 238.21 34.0713 237.506 34.5513C236.802 35.0313 235.97 35.2713 235.01 35.2713ZM249.994 35.2713C248.714 35.2713 247.61 35.0313 246.682 34.5513C245.77 34.0553 245.058 33.3593 244.546 32.4633C244.05 31.5513 243.802 30.4713 243.802 29.2233C243.802 28.0073 244.05 26.9433 244.546 26.0313C245.042 25.1193 245.722 24.4073 246.586 23.8953C247.45 23.3833 248.434 23.1273 249.538 23.1273C250.626 23.1273 251.554 23.3673 252.322 23.8473C253.106 24.3113 253.706 24.9753 254.122 25.8393C254.538 26.7033 254.746 27.7353 254.746 28.9353V29.7513H245.722V28.2633H253.114L252.706 28.5993C252.706 27.3993 252.442 26.4713 251.914 25.8153C251.386 25.1593 250.626 24.8313 249.634 24.8313C248.882 24.8313 248.242 25.0073 247.714 25.3593C247.202 25.7113 246.81 26.1993 246.538 26.8233C246.266 27.4473 246.13 28.1753 246.13 29.0073V29.1513C246.13 30.0793 246.274 30.8633 246.562 31.5033C246.866 32.1273 247.306 32.5993 247.882 32.9193C248.458 33.2393 249.17 33.3993 250.018 33.3993C250.69 33.3993 251.346 33.2953 251.986 33.0873C252.642 32.8633 253.258 32.5193 253.834 32.0553L254.554 33.7353C254.026 34.2153 253.346 34.5913 252.514 34.8633C251.682 35.1353 250.842 35.2713 249.994 35.2713ZM261.493 35.2713C260.869 35.2713 260.261 35.2153 259.669 35.1033C259.077 34.9913 258.533 34.8313 258.037 34.6233C257.541 34.4153 257.101 34.1593 256.717 33.8553L257.413 32.2233C257.813 32.4953 258.237 32.7353 258.685 32.9433C259.133 33.1353 259.597 33.2793 260.077 33.3753C260.573 33.4713 261.053 33.5193 261.517 33.5193C262.365 33.5193 263.005 33.3673 263.437 33.0633C263.869 32.7593 264.085 32.3513 264.085 31.8393C264.085 31.4233 263.941 31.1033 263.653 30.8793C263.365 30.6393 262.933 30.4553 262.357 30.3273L260.077 29.8713C259.085 29.6633 258.333 29.2953 257.821 28.7673C257.309 28.2393 257.053 27.5673 257.053 26.7513C257.053 26.0153 257.253 25.3753 257.653 24.8313C258.053 24.2873 258.613 23.8713 259.333 23.5833C260.053 23.2793 260.885 23.1273 261.829 23.1273C262.373 23.1273 262.901 23.1833 263.413 23.2953C263.925 23.4073 264.405 23.5673 264.853 23.7753C265.317 23.9833 265.709 24.2473 266.029 24.5673L265.333 26.1993C265.029 25.9273 264.677 25.6953 264.277 25.5033C263.893 25.3113 263.493 25.1673 263.077 25.0713C262.661 24.9593 262.245 24.9033 261.829 24.9033C260.981 24.9033 260.341 25.0633 259.909 25.3833C259.493 25.6873 259.285 26.1033 259.285 26.6313C259.285 27.0313 259.413 27.3593 259.669 27.6153C259.925 27.8713 260.325 28.0553 260.869 28.1673L263.149 28.6233C264.189 28.8313 264.973 29.1833 265.501 29.6793C266.045 30.1753 266.317 30.8473 266.317 31.6953C266.317 32.4313 266.117 33.0713 265.717 33.6153C265.317 34.1593 264.749 34.5753 264.013 34.8633C263.293 35.1353 262.453 35.2713 261.493 35.2713ZM273.888 35.2713C272.432 35.2713 271.336 34.8953 270.6 34.1433C269.88 33.3913 269.52 32.3033 269.52 30.8793V25.2153H267.24V23.3433H269.52V19.8153H271.944V23.3433H275.568V25.2153H271.944V30.6873C271.944 31.5353 272.12 32.1753 272.472 32.6073C272.84 33.0393 273.432 33.2553 274.248 33.2553C274.488 33.2553 274.728 33.2233 274.968 33.1593C275.224 33.0953 275.472 33.0313 275.712 32.9673L276.096 34.7913C275.856 34.9353 275.52 35.0473 275.088 35.1273C274.672 35.2233 274.272 35.2713 273.888 35.2713ZM281.766 35.2713C281.142 35.2713 280.534 35.2153 279.942 35.1033C279.35 34.9913 278.806 34.8313 278.31 34.6233C277.814 34.4153 277.374 34.1593 276.99 33.8553L277.686 32.2233C278.086 32.4953 278.51 32.7353 278.958 32.9433C279.406 33.1353 279.87 33.2793 280.35 33.3753C280.846 33.4713 281.326 33.5193 281.79 33.5193C282.638 33.5193 283.278 33.3673 283.71 33.0633C284.142 32.7593 284.358 32.3513 284.358 31.8393C284.358 31.4233 284.214 31.1033 283.926 30.8793C283.638 30.6393 283.206 30.4553 282.63 30.3273L280.35 29.8713C279.358 29.6633 278.606 29.2953 278.094 28.7673C277.582 28.2393 277.326 27.5673 277.326 26.7513C277.326 26.0153 277.526 25.3753 277.926 24.8313C278.326 24.2873 278.886 23.8713 279.606 23.5833C280.326 23.2793 281.158 23.1273 282.102 23.1273C282.646 23.1273 283.174 23.1833 283.686 23.2953C284.198 23.4073 284.678 23.5673 285.126 23.7753C285.59 23.9833 285.982 24.2473 286.302 24.5673L285.606 26.1993C285.302 25.9273 284.95 25.6953 284.55 25.5033C284.166 25.3113 283.766 25.1673 283.35 25.0713C282.934 24.9593 282.518 24.9033 282.102 24.9033C281.254 24.9033 280.614 25.0633 280.182 25.3833C279.766 25.6873 279.558 26.1033 279.558 26.6313C279.558 27.0313 279.686 27.3593 279.942 27.6153C280.198 27.8713 280.598 28.0553 281.142 28.1673L283.422 28.6233C284.462 28.8313 285.246 29.1833 285.774 29.6793C286.318 30.1753 286.59 30.8473 286.59 31.6953C286.59 32.4313 286.39 33.0713 285.99 33.6153C285.59 34.1593 285.022 34.5753 284.286 34.8633C283.566 35.1353 282.726 35.2713 281.766 35.2713Z" fill="#201814"/>
</svg>
